<svg xmlns="http://www.w3.org/2000/svg" viewBox="0 0 200 200" style="fill-rule:evenodd;clip-rule:evenodd;stroke-linejoin:round;stroke-miterlimit:2;" >
    <g id="close-icon" viewBox="0 0 1000 1000" >
        <g transform="matrix(1.41421,0,0,1.41421,-207.107,-207.107)">
            <path d="M500,429.289L782.843,146.447L853.553,217.157L570.711,500L853.553,782.843L782.843,853.553L500,570.711L217.157,853.553L146.447,782.843L429.289,500L146.447,217.157L217.157,146.447L500,429.289Z" style="fill:rgb(209,36,46);"/>
        </g>
    </g>
    <g id="grey-close-icon" viewBox="0 0 1000 1000" >
        <g transform="matrix(1.41421,0,0,1.41421,-207.107,-207.107)">
            <path d="M500,429.289L782.843,146.447L853.553,217.157L570.711,500L853.553,782.843L782.843,853.553L500,570.711L217.157,853.553L146.447,782.843L429.289,500L146.447,217.157L217.157,146.447L500,429.289Z" style="fill:rgb(128, 128, 128);"/>
        </g>
    </g>
    <g id="black-close-icon" viewBox="0 0 1000 1000" >
        <g transform="rotate(45,500,500)" >
            <line x1="500" x2="500" y1="50" y2="950" style="fill:none;stroke:#000000;stroke-width:100px;"/>
            <line x1="50" x2="950" y1="500" y2="500" style="fill:none;stroke:#000000;stroke-width:100px;"/>
        </g>
    </g>
    <g id="hide-frame-icon" viewBox="0 0 1000 1000" >
        <rect x="-0.004" y="416.524" width="1000" height="166.948" style="fill:rgb(255,180,0);"/>
    </g>
    <g id="fullscreen-mode-icon" viewBox="0 0 1000 1000" >
        <path d="M1000,116.186L0,116.186L0,883.814L1000,883.814L1000,116.186ZM886.059,257.756L113.941,257.756L113.941,796.35L886.059,796.35L886.059,257.756Z" style="fill:rgb(0,200,50);"/>
    </g>
    <g id="frame-mode-icon" viewBox="0 0 1000 1000" >
        <path d="M701.67,365.344L701.67,96.033L0,96.033L0,634.656L298.33,634.656L298.33,903.967L1000,903.967L1000,365.344L701.67,365.344ZM378.279,634.656L378.279,842.596L920.051,842.596L920.051,464.68L701.67,464.68L701.67,634.656L378.279,634.656ZM621.721,195.369L79.949,195.369L79.949,573.285L621.721,573.285L621.721,195.369Z" style="fill:rgb(0,200,50);"/>
    </g>
    <g id="resize-frame-icon" viewBox="0 0 1000 1000" >
        <path d="M1000,82.222L82.222,1000L0,1000L0,917.778L917.778,0L1000,0L1000,82.222ZM1000,540.708L540.708,1000L376.264,1000L1000,376.264L1000,540.708ZM1000,999.194L999.194,1000L834.75,1000L1000,834.75L1000,999.194Z"/>
    </g>
    <g id="left-arrow-icon" viewBox="0 0 30 30" >
        <path d="M0.017,15.017L29.983,0.017L29.983,30.017L0.017,15.017Z" style="fill:rgb(34,145,167);fill-rule:nonzero;"/>
    </g>
    <g id="right-arrow-icon" viewBox="0 0 31 30" >
        <path d="M29.983,15.017L0.017,0.017L0.017,30.017L29.983,15.017Z" style="fill:rgb(34,145,167);fill-rule:nonzero;"/>
    </g>
    <g id="up-arrow-icon" viewBox="0 0 31 30" >
        <path d="M14.999,0.034L30,30L0,30L14.999,0.034Z" style="fill:rgb(34,145,167);fill-rule:nonzero;"/>
    </g>
    <g id="down-arrow-icon" viewBox="0 0 31 30" >
        <path d="M14.999,30L30,0.034L0,0.034L14.999,30Z" style="fill:rgb(34,145,167);fill-rule:nonzero;"/>
    </g>
    <g id="sort-icon" viewBox="0 0 9 9" >
        <g transform="matrix(0.475917,0,0,0.764109,2.59633,1.63332)">
            <path d="M0,5L4,9L8,5L0,5Z" style="fill-rule:nonzero;"/>
        </g>
        <g transform="matrix(0.475917,0,0,0.764109,2.59633,0.489701)">
            <path d="M0,4L4,0L8,4L0,4Z" style="fill-rule:nonzero;"/>
        </g>
    </g>
    <g id="menu-icon" viewBox="0 0 20 20" >
        <g transform="matrix(1.5017578,0,0,1,-9.5333973,0)" >
            <path d="m 7,15 h 12 v 2 H 7 Z M 7,9 h 12 v 2 H 7 Z M 7,3 H 19 V 5 H 7 Z" />
        </g>
    </g>
    <g id="context-menu-icon" viewBox="0 0 128 128" >
        <path d="M98.462,104.66L113.231,128L128,104.66L98.462,104.66Z" style="fill-rule:nonzero;"/>
        <rect x="0" y="-0" width="93.296" height="17.496"/>
        <rect x="0" y="30.779" width="93.296" height="17.496"/>
        <rect x="0" y="61.558" width="93.296" height="17.496"/>
        <rect x="0" y="92.337" width="93.296" height="17.496"/>
    </g>
    <g id="undo-icon" viewBox="0 0 1000 1000" >
        <path d="M808.586,891.965C940.304,734.219 962.58,493.601 444.91,501.68L444.91,695.983L0,402.009L444.91,108.035L444.91,298.178C1064.76,287.539 1133.88,659.666 808.586,891.965Z" style="fill-rule:nonzero;"/>
    </g>
    <g id="redo-icon" viewBox="0 0 1000 1000" >
        <path d="M191.414,891.965C59.696,734.219 37.42,493.601 555.09,501.68L555.09,695.983L1000,402.009L555.09,108.035L555.09,298.178C-64.758,287.539 -133.885,659.666 191.414,891.965Z" style="fill-rule:nonzero;"/>
    </g>
    <g id="align-left-icon" viewBox="0 0 32 32" >
        <polygon points="2,6 2,4 30,4 30,6 2,6  "/>
        <polygon points="2,14 2,12 30,12 30,14 2,14  "/>
        <polygon points="2,22 2,20 30,20 30,22 2,22  "/>
        <polygon points="2,10 2,8 22,8 22,10 2,10  "/>
        <polygon points="2,18 2,16 22,16 22,18 2,18  "/>
        <polygon points="2,26 2,24.001 22,24.001 22,26 2,26  "/>
    </g>
    <g id="align-center-icon" viewBox="0 0 32 32" >
        <polygon points="2,6 2,4 30,4 30,6 2,6  "/>
        <polygon points="2,14 2,12 30,12 30,14 2,14  "/>
        <polygon points="2,22 2,20 30,20 30,22 2,22  "/>
        <polygon points="6,10 6,8 26,8 26,10 6,10  "/>
        <polygon points="6,18 6,16 26,16 26,18 6,18  "/>
        <polygon points="6,26 6,24 26,24 26,26 6,26  "/>
    </g>
    <g id="align-right-icon" viewBox="0 0 32 32" >
        <polygon points="2,6 2,4 30,4 30,6 2,6  "/>
        <polygon points="2,14 2,12 30,12 30,14 2,14  "/>
        <polygon points="2,22 2,20 30,20 30,22 2,22  "/>
        <polygon points="10,10 10,8 30,8 30,10 10,10  "/>
        <polygon points="10,18 10,16 30,16 30,18 10,18  "/>
        <polygon points="10,26 10,24 30,24 30,26 10,26  "/>
    </g>
    <g id="align-justify-icon" viewBox="0 0 32 32" >
        <polygon points="2,6 2,4 30,4 30,6 2,6  "/>
        <polygon points="2,14 2,12 30,12 30,14 2,14  "/>
        <polygon points="2,22 2,20 30,20 30,22 2,22  "/>
        <polygon points="2,10 2,8 30,8 30,10 2,10  "/>
        <polygon points="2,18 2,16 30,16 30,18 2,18  "/>
        <polygon points="2,26 2,24 30,24 30,26 2,26  "/>
    </g>
    <g id="unorder-list-icon" viewBox="0 0 20 20" >
        <path d="M7 15h12v2H7zm0-6h12v2H7zm0-6h12v2H7z"/>
        <circle cx="3" cy="4" r="2"/>
        <circle cx="3" cy="10" r="2"/>
        <circle cx="3" cy="16" r="2"/>
    </g>
    <g id="order-list-icon" viewBox="0 0 20 20" >
        <path d="M7 15h12v2H7zm0-6h12v2H7zm0-6h12v2H7zM2 6h1V1H1v1h1v4zm-1 9h2v1H2v1h1v1H1v1h3v-5H1v1zm2.5-7H1v1h2v1H1.5a.5.5 0 0 0-.5.5V13h3v-1H2v-1h1.5a.5.5 0 0 0 .5-.5v-2a.5.5 0 0 0-.5-.5z"/>
    </g>
    <g id="url-icon" viewBox="0 0 1000 1000" >
        <path d="M429.7,621.3c-13,0-26.1-5-36-14.9c-93.3-93.3-93.3-245,0-338.2L581.8,79.9C627,34.8,687.1,9.9,750.9,9.9c63.9,0,123.9,24.9,169.1,70.1c93.3,93.3,93.3,245,0,338.2l-86,86c-19.9,19.9-52.2,19.9-72.1,0c-19.9-19.9-19.9-52.2,0-72.1l86-86c53.5-53.5,53.5-140.6,0-194.1c-25.9-25.9-60.4-40.2-97-40.2c-36.7,0-71.1,14.3-97,40.2L465.7,340.2c-53.5,53.5-53.5,140.6,0,194.1c19.9,19.9,19.9,52.2,0,72.1C455.7,616.3,442.7,621.3,429.7,621.3L429.7,621.3z"/>
        <path d="M249.1,990.1c-63.9,0-123.9-24.9-169.1-70.1c-93.3-93.3-93.3-245,0-338.2l86-86c19.9-19.9,52.2-19.9,72.1,0c19.9,19.9,19.9,52.2,0,72.1l-86,86c-53.5,53.5-53.5,140.6,0,194.1c25.9,25.9,60.4,40.2,97,40.2s71.1-14.3,97-40.2l188.2-188.2c53.5-53.5,53.5-140.6,0-194.1c-19.9-19.9-19.9-52.2,0-72.1c19.9-19.9,52.2-19.9,72.1,0c93.3,93.3,93.3,245,0,338.2L418.2,920.1C373,965.2,312.9,990.1,249.1,990.1L249.1,990.1z"/>
    </g>
    <g id="picture-icon" viewBox="0 0 1000 1000" >
        <path d="M881.1,132.5H118.9C59,132.5,10,181.5,10,241.4v517.3c0,59.9,49,108.9,108.9,108.9h762.2c59.9,0,108.9-49,108.9-108.9V241.4C990,181.5,941,132.5,881.1,132.5z M949.2,747.3c0,54.9-24.5,79.4-79.4,79.4H130.3c-54.9,0-79.4-24.5-79.4-79.4V252.7c0-54.9,24.5-79.4,79.4-79.4h739.5c54.9,0,79.4,24.5,79.4,79.4V747.3z M316.3,418.3L418.3,500l265.4-224.6l204.2,183.8v306.3H112.1V581.7L316.3,418.3z M193.8,234.6c-45.1,0-81.7,36.6-81.7,81.7s36.6,81.7,81.7,81.7s81.7-36.6,81.7-81.7S238.9,234.6,193.8,234.6z"/>
    </g>
    <g id="color-picture-icon" viewBox="0 0 1000 1000" >
        <path d="M881.1,132.5H118.9C59,132.5,10,181.5,10,241.4v517.3c0,59.9,49,108.9,108.9,108.9h762.2c59.9,0,108.9-49,108.9-108.9V241.4C990,181.5,941,132.5,881.1,132.5z M949.2,747.3c0,54.9-24.5,79.4-79.4,79.4H130.3c-54.9,0-79.4-24.5-79.4-79.4V252.7c0-54.9,24.5-79.4,79.4-79.4h739.5c54.9,0,79.4,24.5,79.4,79.4V747.3z M316.3,418.3L418.3,500l265.4-224.6l204.2,183.8v306.3H112.1V581.7L316.3,418.3z M193.8,234.6c-45.1,0-81.7,36.6-81.7,81.7s36.6,81.7,81.7,81.7s81.7-36.6,81.7-81.7S238.9,234.6,193.8,234.6z" style="fill:rgb(34, 145, 167);" />
    </g>
    <g id="font-size-icon" viewBox="0 0 850 850" >
        <path d="M254.9,546.4"/>
        <path d="M750.5,351"/>
        <path d="M594.2,203.3"/>
        <path d="M189.1,449.6l94.1-302.5l94.4,302.5H189.1 M368.1,31.1H224.6L10,708.6h99.5l50.8-161.2h248.7l51.6,161.2h124.6L368.1,31.1"/>
        <path d="M593.6,551.6l54.6-175.1l54.6,175.1H593.6 M697.3,309.2h-83.1l-66.7,210l28.9,90.4l0.4-1.3h144.1l30,100.2h72L701.3,321.9L697.3,309.2"/>
    </g>
    <g id="text-color-icon" viewBox="0 0 1000 1000" >
        <path d="M887.9,745H698.1l-49.6-140H384.8l-49.6,140H150L413.2,45h211.5L887.9,745z M604.3,465l-87.6-255.3L429,465H604.3z"/>
        <path d="M10,815h980v140H10V815z" style="fill:rgb(34, 145, 167);fill-opacity:1;fill-rule:nonzero;stroke:none" />
    </g>
    <g id="remove-text-format-icon" viewBox="0 0 100 100" >
        <g transform="matrix(36.2478,0,0,36.2478,-1188.03,-1495.8)">
            <text x="32.587px" y="44.025px" style="font-family:'TimesNewRomanPS-BoldItalicMT', 'Times New Roman', serif;font-weight:700;font-style:italic;font-size:4.167px;">T</text>
        </g>
        <g transform="matrix(1.43101,1.15737,-0.961539,1.18888,-22.5216,-25.827)">
            <rect x="2.008" y="2.557" width="109.077" height="9.176" style="fill:rgb(34, 145, 167);stroke:white;stroke-width:0.82px;"/>
        </g>
    </g>
    <g id="camera-icon" viewBox="0 0 48 48" >
        <path d="M6 12a2 2 0 0 0-2 2v24a2 2 0 0 0 2 2h36a2 2 0 0 0 2-2V14a2 2 0 0 0-2-2h-9l-2-5H17l-2 5zm18 4a10 10 0 1 1-.1 0zm0 5a5 5 0 1 0 .1 0z" style="fill:rgb(34, 145, 167);" />
    </g>
    <g id="plus-icon" viewBox="0 0 1000 1000" >
        <circle cx="500" cy="500" r="500" style="fill:rgb(34, 145, 167);"/>
        <g>
            <line x1="500" x2="500" y1="200" y2="800" style="fill:none;stroke:rgb(255,255,255);stroke-width:80px;"/>
            <line x1="200" x2="800" y1="500" y2="500" style="fill:none;stroke:rgb(255,255,255);stroke-width:80px;"/>
        </g>
    </g>
    <g id="minus-icon" viewBox="0 0 1000 1000" >
        <circle cx="500" cy="500" r="500" style="fill:rgb(34, 145, 167);"/>
        <g>
            <line x1="200" x2="800" y1="500" y2="500" style="fill:none;stroke:rgb(255,255,255);stroke-width:80px;"/>
        </g>
    </g>
    <g id="select-area-icon" viewBox="0 0 1000 1000" >
        <g transform="matrix(1.19614,0,0,1.19614,-113.739,-106.233)">
            <path d="M188.445,88.814L188.445,147.335L153.611,147.335L153.611,182.17L95.089,182.17L95.089,88.814L188.445,88.814ZM95.089,274.132L153.611,274.132L153.611,460.844L95.089,460.844L95.089,274.132ZM95.089,552.807L153.611,552.807L153.611,739.52L95.089,739.52L95.089,552.807ZM95.089,831.483L153.611,831.483L153.611,866.317L188.445,866.317L188.445,924.839L95.089,924.839L95.089,831.483ZM280.407,924.839L280.407,866.317L467.119,866.317L467.119,924.839L280.407,924.839ZM559.082,924.839L559.082,866.317L745.795,866.317L745.795,924.839L559.082,924.839ZM837.758,924.839L837.758,866.317L872.593,866.317L872.593,831.483L931.114,831.483L931.114,924.839L837.758,924.839ZM931.114,739.521L872.593,739.521L872.593,552.809L931.114,552.809L931.114,739.521ZM931.114,460.846L872.593,460.846L872.593,274.133L931.114,274.133L931.114,460.846ZM931.114,182.17L872.593,182.17L872.593,147.335L837.758,147.335L837.758,88.814L931.114,88.814L931.114,182.17ZM745.796,88.814L745.796,147.335L559.084,147.335L559.084,88.814L745.796,88.814ZM467.121,88.814L467.121,147.335L280.408,147.335L280.408,88.814L467.121,88.814Z"/>
        </g>
    </g>
    <g id="edit-icon" viewBox="0 0 486 486" >
        <path d="M467.476,146.438L446.031,167.893L317.35,39.23L338.795,17.773C362.484,-5.919 400.899,-5.919 424.59,17.773L467.476,60.67C491.133,84.349 491.133,122.748 467.476,146.438ZM167.233,403.748C161.311,409.67 161.311,419.261 167.233,425.184C173.158,431.139 182.754,431.139 188.676,425.184L424.59,189.335L403.121,167.878L167.233,403.748ZM60,296.54C54.075,302.467 54.075,312.054 60,317.98C65.922,323.903 75.518,323.903 81.443,317.98L317.35,82.113L295.914,60.67L60,296.54ZM338.767,103.54L102.881,339.421C91.036,351.243 91.066,370.462 102.881,382.307C114.731,394.153 133.919,394.208 145.795,382.275L381.681,146.438L338.767,103.54ZM145.734,446.572C138.481,439.31 134.985,430.107 133.684,420.624C130.601,421.1 127.496,421.543 124.324,421.543C108.122,421.543 92.905,415.21 81.443,403.748C69.981,392.257 63.673,377.061 63.673,360.861C63.673,357.907 64.116,355.028 64.532,352.158C54.729,350.823 45.668,346.529 38.56,339.421C37.878,338.744 37.643,337.825 37.022,337.083L0,485.216L147.748,448.23C147.097,447.637 146.36,447.193 145.734,446.572Z" style="fill-rule:nonzero;"/>
    </g>
    <g id="brush-icon" viewBox="0 0 256 256" >
        <g transform="matrix(1.08456,0,0,1.08456,-10.8298,-10.8372)">
            <g>
                <path d="M39,171.8C20.4,190.1 36.1,208.9 11.4,236.7C0.3,249.3 57.3,245.4 85.6,217.6C97.6,205.8 94.2,188.6 81.3,176C68.5,163.3 51,160 39,171.8ZM245.3,13.2C235.7,3.8 130,88.5 98.5,119.5C82.9,134.9 77.7,143.1 72.9,149.2C70.8,151.9 73.6,152.7 74.8,153.3C81,156.5 85.3,159.4 90.9,164.9C96.5,170.4 99.5,174.7 102.7,180.7C103.4,181.9 104.2,184.6 106.9,182.6C113.2,177.9 121.5,172.8 137.1,157.4C168.6,126.5 254.8,22.6 245.3,13.2Z" style="fill-rule:nonzero;"/>
            </g>
        </g>
    </g>
    <g id="color-picker-icon" viewBox="0 0 256 256" >
        <g>
            <path fill="#000000" d="M200.7,10.8c-2,0.4-5.9,1.9-8.7,3.3c-4.8,2.4-5.8,3.2-14,11.3l-8.9,8.7l-3.4-1.5c-6.4-2.9-15.2-2.5-21.2,1c-1,0.6-5.8,4.9-10.5,9.6c-11.5,11.4-11.5,9.9,0.1,21.6l8.7,8.7l-64.3,64.2C43.2,173,14.1,202.4,13.7,203c-0.3,0.6-1.4,9.7-2.4,20.2c-1.9,20.7-1.9,21.1,0.9,22.5c1.1,0.5,4.9,0.3,20.9-1.1l19.6-1.8l64.8-64.8l64.9-64.8l8.2,8.3c8.2,8.3,10.3,9.8,12.6,9.4c0.7-0.2,5.1-4.2,10-9.1c11.1-11.2,11.9-12.5,11.9-21.6c0-5.8-0.1-6.6-1.6-9.7l-1.6-3.4l8.5-8.6c4.9-5,9.2-9.9,10.4-11.9c6.5-10.8,7-24.5,1.6-35.5c-4-8.1-9.7-13.7-17.8-17.5C217.5,10.1,208.6,9.1,200.7,10.8z M162.7,93.5l13.1,13.1l-63.6,63.6l-63.6,63.6l-14.5,1.4c-8,0.7-14.5,1.3-14.5,1.3c-0.1-0.1,0.5-6.6,1.3-14.6l1.4-14.5l63.4-63.5c34.9-34.9,63.6-63.5,63.8-63.5S155.5,86.3,162.7,93.5z"/>
        </g>
    </g>
    <g id="move-icon" viewBox="0 0 256 256" >
        <g transform="matrix(1.54964,0,0,1.54964,-70.3535,-70.3535)">
            <g>
                <path d="M175.2,104.4L210.6,128L175.2,151.6L175.2,139.8L139.8,139.8L139.8,175.2L151.6,175.2L128,210.6L104.4,175.2L116.2,175.2L116.2,139.8L80.8,139.8L80.8,151.6L45.4,128L80.8,104.4L80.8,116.2L116.2,116.2L116.2,80.8L104.4,80.8L128,45.4L151.6,80.8L139.8,80.8L139.8,116.2L175.2,116.2L175.2,104.4Z" style="fill-rule:nonzero;"/>
            </g>
        </g>
    </g>
    <g id="hand-icon" viewBox="0 0 256 256" >
        <g>
            <path fill="#000000" d="M210.6,57.2c-4.3,0-8.3,1.2-11.8,3.2v-15c0-13-10.6-23.6-23.6-23.6c-4.9,0-9.4,1.5-13.1,4c-3.3-9.2-12-15.8-22.3-15.8c-10.3,0-19,6.6-22.3,15.8c-3.8-2.5-8.3-4-13.1-4c-13,0-23.6,10.6-23.6,23.6v87l-15.9-27.5c-3.1-5.6-8.1-9.6-14.2-11.2c-5.9-1.6-12-0.7-17.2,2.4c-10.7,6.4-14.8,20.9-9.1,32.3c0.4,0.7,7.9,16.1,31.4,63.1c11.1,22.1,23.2,38,36.1,47c10.1,7.1,17.1,7.5,18.4,7.5h59c10,0,19.4-3.3,27.8-9.7c7.9-6,14.7-14.8,20.3-26c11-22,16.9-52.5,16.9-88.2V80.8C234.2,67.8,223.6,57.2,210.6,57.2L210.6,57.2z M222.4,122.1c0,33.8-5.4,62.5-15.6,82.9c-6.6,13.3-18.6,29.2-37.5,29.2h-58.9c-0.5,0-5.4-0.6-12.9-6.2c-7.5-5.6-18.9-17.4-31.1-41.8c-23.9-47.8-31.2-62.9-31.3-63c0,0,0,0,0,0c-3-5.9-0.9-13.7,4.6-17c2.5-1.5,5.3-1.9,8.1-1.1c2.9,0.8,5.4,2.8,6.9,5.6c0,0,0,0.1,0.1,0.1l18.4,31.9c3.8,6.9,8,9.8,12.6,8.6c4.6-1.2,6.9-5.8,6.9-13.7V45.4c0-6.5,5.3-11.8,11.8-11.8s11.8,5.3,11.8,11.8v76.7c0,3.3,2.6,5.9,5.9,5.9s5.9-2.6,5.9-5.9V33.6c0-6.5,5.3-11.8,11.8-11.8c6.5,0,11.8,5.3,11.8,11.8v88.5c0,3.3,2.6,5.9,5.9,5.9c3.3,0,5.9-2.6,5.9-5.9V45.4c0-6.5,5.3-11.8,11.8-11.8c6.5,0,11.8,5.3,11.8,11.8v88.5c0,3.3,2.6,5.9,5.9,5.9c3.3,0,5.9-2.7,5.9-5.9V80.8c0-6.5,5.3-11.8,11.8-11.8c6.5,0,11.8,5.3,11.8,11.8L222.4,122.1L222.4,122.1z"/>
        </g>
    </g>
    <g id="rotate-icon" viewBox="0 0 256 256" >
        <g transform="matrix(1.03911,0,0,1.03911,-5.00855,-4.96573)">
            <g>
                <g>
                    <path d="M122.2,5.3C69.3,10.3 25.7,47.8 13.4,99.1C6.1,129.5 10.7,162.6 26,189C53.7,236.9 108.5,260.5 162.1,247.7C184.9,242.3 204.3,231.1 221.3,213.5L229.2,205.5L210.7,191.7L192.4,178L186.4,183.6C170.6,198.5 147.9,206.2 126.5,203.8C108.1,201.7 92.6,194.4 79.7,181.5C70.7,172.5 64.9,163.2 61.1,151.7C48.5,113.6 65.6,74 102.4,56.9C121.7,47.8 145.6,47.6 165.6,56.5C171.2,58.9 180.6,65 186.1,69.8L189.7,72.8L178.6,84L167.5,95.1L246,95.1L246,56.5C246,35.2 245.7,17.8 245.4,17.8C245,17.8 239.6,22.9 233.4,29.1L222.1,40.4L217.4,35.9C193.9,13.8 157.2,2.1 122.2,5.3Z" style="fill-rule:nonzero;"/>
                    <path d="M127.4,98.7C122.5,99.9 119.1,101.9 114.6,106.1C108.8,111.4 106.1,117.2 105.6,125.4C105.1,134.5 107.6,141 113.8,147.3C120.1,153.5 126.6,156 135.7,155.5C143.9,155 149.7,152.3 155.2,146.3C160.7,140.3 162.7,135.3 162.8,127.2C162.9,115.7 157.2,106.4 147.1,101.4C140.9,98.5 133,97.4 127.4,98.7Z" style="fill-rule:nonzero;"/>
                </g>
            </g>
        </g>
    </g>
    <g id="refresh-icon" viewBox="0 0 256 256" >
        <g transform="matrix(1.03911,0,0,1.03911,-5.00855,-4.96573)">
            <g>
                <g>
                    <path d="M122.2,5.3C69.3,10.3 25.7,47.8 13.4,99.1C6.1,129.5 10.7,162.6 26,189C53.7,236.9 108.5,260.5 162.1,247.7C184.9,242.3 204.3,231.1 221.3,213.5L229.2,205.5L210.7,191.7L192.4,178L186.4,183.6C170.6,198.5 147.9,206.2 126.5,203.8C108.1,201.7 92.6,194.4 79.7,181.5C70.7,172.5 64.9,163.2 61.1,151.7C48.5,113.6 65.6,74 102.4,56.9C121.7,47.8 145.6,47.6 165.6,56.5C171.2,58.9 180.6,65 186.1,69.8L189.7,72.8L178.6,84L167.5,95.1L246,95.1L246,56.5C246,35.2 245.7,17.8 245.4,17.8C245,17.8 239.6,22.9 233.4,29.1L222.1,40.4L217.4,35.9C193.9,13.8 157.2,2.1 122.2,5.3Z" style="fill-rule:nonzero;"/>
                </g>
            </g>
        </g>
    </g>
    <g id="play-icon" viewBox="0 0 31 30" >
        <path d="M29.983,15.017L0.017,0.017L0.017,30.017L29.983,15.017Z" style="fill:rgb(0,200,50);fill-rule:nonzero;"/>
    </g>
    <g id="stop-icon" viewBox="0 0 31 30" >
        <path d="M29.983,0.017L0.017,0.017L0.017,30.017L29.983,30.017Z" style="fill:rgb(209,36,46);fill-rule:nonzero;"/>
    </g>
    <g id="pause-icon" viewBox="0 0 800 800" >
        <g transform="matrix(2.31327,0,0,2.31327,-525.306,-525.306)">
            <path d="M266.667,233.333L366.667,233.333L366.667,566.667L266.667,566.667L266.667,233.333ZM433.333,233.333L533.333,233.333L533.333,566.667L433.333,566.667L433.333,233.333Z" style="fill:rgb(255,180,0);fill-rule:nonzero;" />
        </g>
    </g>
    <g id="trash-icon" viewBox="0 0 1792 1792" >
        <g transform="matrix(1.16667,0,0,1.16667,-149.333,-149.333)">
            <path d="M704,1376L704,672C704,662.667 701,655 695,649C689,643 681.333,640 672,640L608,640C598.667,640 591,643 585,649C579,655 576,662.667 576,672L576,1376C576,1385.33 579,1393 585,1399C591,1405 598.667,1408 608,1408L672,1408C681.333,1408 689,1405 695,1399C701,1393 704,1385.33 704,1376ZM960,1376L960,672C960,662.667 957,655 951,649C945,643 937.333,640 928,640L864,640C854.667,640 847,643 841,649C835,655 832,662.667 832,672L832,1376C832,1385.33 835,1393 841,1399C847,1405 854.667,1408 864,1408L928,1408C937.333,1408 945,1405 951,1399C957,1393 960,1385.33 960,1376ZM1216,1376L1216,672C1216,662.667 1213,655 1207,649C1201,643 1193.33,640 1184,640L1120,640C1110.67,640 1103,643 1097,649C1091,655 1088,662.667 1088,672L1088,1376C1088,1385.33 1091,1393 1097,1399C1103,1405 1110.67,1408 1120,1408L1184,1408C1193.33,1408 1201,1405 1207,1399C1213,1393 1216,1385.33 1216,1376ZM672,384L1120,384L1072,267C1067.33,261 1061.67,257.333 1055,256L738,256C731.333,257.333 725.667,261 721,267L672,384ZM1600,416L1600,480C1600,489.333 1597,497 1591,503C1585,509 1577.33,512 1568,512L1472,512L1472,1460C1472,1515.33 1456.33,1563.17 1425,1603.5C1393.67,1643.83 1356,1664 1312,1664L480,1664C436,1664 398.333,1644.5 367,1605.5C335.667,1566.5 320,1519.33 320,1464L320,512L224,512C214.667,512 207,509 201,503C195,497 192,489.333 192,480L192,416C192,406.667 195,399 201,393C207,387 214.667,384 224,384L533,384L603,217C613,192.333 631,171.333 657,154C683,136.667 709.333,128 736,128L1056,128C1082.67,128 1109,136.667 1135,154C1161,171.333 1179,192.333 1189,217L1259,384L1568,384C1577.33,384 1585,387 1591,393C1597,399 1600,406.667 1600,416Z" style="fill-rule:nonzero;"/>
        </g>
    </g>
    <g id="magnifying-glass-icon" viewBox="0 0 43 43" >
        <g transform="matrix(0.989251,0,0,0.989251,0.363988,-0.914643)">
            <circle cx="15.002" cy="16.391" r="10.184" style="fill:white;fill-opacity:0.8;"/>
        </g>
        <g transform="matrix(0.858901,0,0,0.858901,3.07067,3.07525)" style="fill-rule:evenodd;clip-rule:evenodd;stroke-linejoin:round;stroke-miterlimit:2;" >
            <path d="M23.729,26.452C21.282,28.342 18.213,29.466 14.882,29.466C6.88,29.466 0.392,22.978 0.392,14.977C0.392,6.975 6.88,0.487 14.882,0.487C22.884,0.487 29.371,6.975 29.371,14.977C29.371,18.205 28.315,21.187 26.53,23.596L42.133,39.199L39.305,42.028L23.729,26.452ZM25.371,14.977C25.371,20.769 20.675,25.466 14.882,25.466C9.089,25.466 4.392,20.769 4.392,14.977C4.392,9.184 9.089,4.487 14.882,4.487C20.675,4.487 25.371,9.184 25.371,14.977Z"/>
            <path d="M23.239,30.901C20.742,32.215 17.899,32.959 14.882,32.959C4.951,32.959 -3.1,24.907 -3.1,14.977C-3.1,5.046 4.951,-3.006 14.882,-3.006C24.813,-3.006 32.864,5.046 32.864,14.977C32.864,17.888 32.172,20.637 30.943,23.069L44.603,36.73C45.967,38.094 45.967,40.305 44.603,41.669L41.775,44.498C40.411,45.862 38.199,45.862 36.835,44.498L23.239,30.901ZM23.729,26.452C21.282,28.342 18.213,29.466 14.882,29.466C6.88,29.466 0.392,22.978 0.392,14.977C0.392,6.975 6.88,0.487 14.882,0.487C22.884,0.487 29.371,6.975 29.371,14.977C29.371,18.205 28.315,21.187 26.53,23.596L42.133,39.199L39.305,42.028L23.729,26.452ZM25.371,14.977C25.371,20.769 20.675,25.466 14.882,25.466C9.089,25.466 4.392,20.769 4.392,14.977C4.392,9.184 9.089,4.487 14.882,4.487C20.675,4.487 25.371,9.184 25.371,14.977ZM21.878,14.977C21.878,18.84 18.746,21.973 14.882,21.973C11.018,21.973 7.885,18.84 7.885,14.977C7.885,11.113 11.018,7.98 14.882,7.98C18.746,7.98 21.878,11.113 21.878,14.977Z" style="fill:white;fill-opacity:0.8;"/>
        </g>
    </g>
    <g id="table-icon" viewBox="0 0 1000 1000" >
        <g transform="matrix(1 0 0 -1 0 1952)">
            <path d="M990,1141.7v620.7c0,18-14.6,32.7-32.7,32.7H42.7c-18,0-32.7-14.6-32.7-32.7v-620.7c0-18,14.6-32.7,32.7-32.7h914.7C991.7,1109,990,1141.7,990,1141.7L990,1141.7z M271.3,1141.7H42.7v130.7h228.7V1141.7L271.3,1141.7z M271.3,1305H42.7v130.7h228.7V1305z M271.3,1468.3H42.7V1599h228.7V1468.3z M271.3,1631.7H42.7v130.7h228.7V1631.7z M499,1141.7H304v130.7h196L499,1141.7z M499,1305H304v130.7h196L499,1305z M304,1468.3l0,130.7h195l1-130.7H304L304,1468.3z M500,1631.7H304v130.7h196V1631.7z M728.7,1141.7h-195l-2,130.7h197V1141.7L728.7,1141.7z M728.7,1305h-195l-2,130.7h197V1305L728.7,1305z M728.7,1468.3h-196l-1,130.7h197V1468.3L728.7,1468.3z M728.7,1631.7h-196l-1,130.7h197V1631.7L728.7,1631.7z M957.3,1141.7h-196l-1,130.7h197V1141.7L957.3,1141.7z M957.3,1305h-196l-1,130.7h197V1305L957.3,1305z M957.3,1468.3h-197V1599h197V1468.3L957.3,1468.3z M957.3,1631.7h-196l-1,130.7h197V1631.7L957.3,1631.7z M238.7,1403H75.3v-65.3h163.3V1403z M238.7,1239.7H75.3v-65.3h163.3V1239.7z M238.7,1566.3H75.3V1501h163.3V1566.3z M467.3,1729.7H336.7v-65.3h130.7V1729.7z M696,1729.7H565.3v-65.3H696V1729.7z M238.7,1729.7H75.3v-65.3h163.3V1729.7z M924.7,1729.7H794v-65.3h130.7V1729.7z"/>
        </g>
    </g>
    <g id="copy-paste-icon" viewBox="0 0 1000 1000" >
        <path d="M806.3,255H622.5v-61.3L438.8,10H10v735h367.5v245H990V438.8L806.3,255z M806.3,341.6l97.1,97.1h-97.1V341.6z M438.8,96.6l97.1,97.1h-97.1V96.6z M71.3,71.3h306.3V255h183.8v428.8h-490V71.3z M928.8,928.8h-490V745h183.8V316.3H745V500h183.8V928.8z"/>
    </g>
    <g id="save-icon" viewBox="0 0 1000 1000" >
        <path d="M500,10C229.4,10,10,229.4,10,500c0,270.6,219.4,490,490,490c270.6,0,490-219.4,490-490C990,229.4,770.6,10,500,10z M343.8,414.8c2.1-7.5,9.4-11.2,21.8-11.2c6.8,0.4,16,0.3,27.6-0.3c11.5-0.6,21.1-1,28.8-1c8.5,0,13.9-2.6,16-7.7c2.1-5.1,3.2-12,3.2-20.5c0-9.4-0.1-19.8-0.3-31.1c-0.2-11.3-0.3-23-0.3-34.9c0-12-0.1-23.7-0.3-35.2c-0.2-11.5-0.3-22.2-0.3-32.1c0-4.3,0.3-8.8,1-13.5c0.6-4.7,2.1-9,4.5-12.8c2.3-3.9,5.8-7.1,10.3-9.6c4.5-2.6,10.6-3.8,18.3-3.8c9,0,17.2-0.1,24.7-0.3c7.5-0.2,16.1-0.3,26-0.3c14.1,0,23.6,3.3,28.5,9.9c4.9,6.6,7.6,17.2,8,31.7v25c0,9.8,0.1,20.3,0.3,31.4c0.2,11.1,0.3,22.2,0.3,33.3v30.1c0,12.4,1.3,22.3,3.8,29.8c2.6,7.5,8.3,11,17.3,10.6c6.4,0,14.2,0.2,23.4,0.6c9.2,0.4,17.2,0.6,24,0.6c11.5,0,18.9,3.1,22.1,9.3c3.2,6.2,1,14.2-6.7,24c-8.1,10.3-17.5,22.6-28.2,37.2c-10.7,14.5-21.7,29.6-33,45.2c-11.3,15.6-22.4,30.8-33.3,45.5c-10.9,14.7-20.6,27.5-29.2,38.1c-7.7,9.8-15.1,14.9-22.1,15.1c-7.1,0.2-14.4-4.4-22.1-13.8c-8.1-9.4-17.4-21.2-27.9-35.3c-10.5-14.1-21.3-28.6-32.4-43.6c-11.1-15-22.1-29.7-33-44.2c-10.9-14.5-20.6-27.1-29.2-37.8C345.5,431.7,341.6,422.2,343.8,414.8z M798.5,751.9c-3.6,9.2-9.3,17.3-17,24.4c-7.7,7.1-17.1,12.6-28.2,16.7c-11.1,4-23.1,6.1-35.9,6.1c-80.8,0.4-153,0.6-216.6,0.6H282.9c-15.4,0-29-2.8-40.7-8.3c-11.7-5.6-21.2-12.4-28.2-20.5c-7.1-8.1-11.8-17-14.1-26.6c-2.4-9.6-2-18.3,1-26c2.6-6,5.1-12.2,7.7-18.6c2.1-5.5,4.7-11.9,7.7-18.9c3-7.1,6.2-14.2,9.6-21.5l24.4-59h73.1l-27.6,80.8h412.8l-27.6-80.8h69.9c9,21.8,17.1,41.5,24.4,59c3,7.7,6,15.2,9,22.4c3,7.3,5.7,13.8,8,19.6c2.4,5.8,4.3,10.7,5.8,14.7c1.5,4.1,2.2,6.3,2.2,6.7C802.7,733,802.1,742.7,798.5,751.9z" style="fill:rgb(34, 145, 167);" />
        <path d="M477.7,604.2" style="fill:rgb(34, 145, 167);" />
    </g>
    <g id="grey-save-icon" viewBox="0 0 1000 1000" >
        <path d="M500,10C229.4,10,10,229.4,10,500c0,270.6,219.4,490,490,490c270.6,0,490-219.4,490-490C990,229.4,770.6,10,500,10z M343.8,414.8c2.1-7.5,9.4-11.2,21.8-11.2c6.8,0.4,16,0.3,27.6-0.3c11.5-0.6,21.1-1,28.8-1c8.5,0,13.9-2.6,16-7.7c2.1-5.1,3.2-12,3.2-20.5c0-9.4-0.1-19.8-0.3-31.1c-0.2-11.3-0.3-23-0.3-34.9c0-12-0.1-23.7-0.3-35.2c-0.2-11.5-0.3-22.2-0.3-32.1c0-4.3,0.3-8.8,1-13.5c0.6-4.7,2.1-9,4.5-12.8c2.3-3.9,5.8-7.1,10.3-9.6c4.5-2.6,10.6-3.8,18.3-3.8c9,0,17.2-0.1,24.7-0.3c7.5-0.2,16.1-0.3,26-0.3c14.1,0,23.6,3.3,28.5,9.9c4.9,6.6,7.6,17.2,8,31.7v25c0,9.8,0.1,20.3,0.3,31.4c0.2,11.1,0.3,22.2,0.3,33.3v30.1c0,12.4,1.3,22.3,3.8,29.8c2.6,7.5,8.3,11,17.3,10.6c6.4,0,14.2,0.2,23.4,0.6c9.2,0.4,17.2,0.6,24,0.6c11.5,0,18.9,3.1,22.1,9.3c3.2,6.2,1,14.2-6.7,24c-8.1,10.3-17.5,22.6-28.2,37.2c-10.7,14.5-21.7,29.6-33,45.2c-11.3,15.6-22.4,30.8-33.3,45.5c-10.9,14.7-20.6,27.5-29.2,38.1c-7.7,9.8-15.1,14.9-22.1,15.1c-7.1,0.2-14.4-4.4-22.1-13.8c-8.1-9.4-17.4-21.2-27.9-35.3c-10.5-14.1-21.3-28.6-32.4-43.6c-11.1-15-22.1-29.7-33-44.2c-10.9-14.5-20.6-27.1-29.2-37.8C345.5,431.7,341.6,422.2,343.8,414.8z M798.5,751.9c-3.6,9.2-9.3,17.3-17,24.4c-7.7,7.1-17.1,12.6-28.2,16.7c-11.1,4-23.1,6.1-35.9,6.1c-80.8,0.4-153,0.6-216.6,0.6H282.9c-15.4,0-29-2.8-40.7-8.3c-11.7-5.6-21.2-12.4-28.2-20.5c-7.1-8.1-11.8-17-14.1-26.6c-2.4-9.6-2-18.3,1-26c2.6-6,5.1-12.2,7.7-18.6c2.1-5.5,4.7-11.9,7.7-18.9c3-7.1,6.2-14.2,9.6-21.5l24.4-59h73.1l-27.6,80.8h412.8l-27.6-80.8h69.9c9,21.8,17.1,41.5,24.4,59c3,7.7,6,15.2,9,22.4c3,7.3,5.7,13.8,8,19.6c2.4,5.8,4.3,10.7,5.8,14.7c1.5,4.1,2.2,6.3,2.2,6.7C802.7,733,802.1,742.7,798.5,751.9z" style="fill:rgb(128,128,128);" />
        <path d="M477.7,604.2" style="fill:rgb(128,128,128);" />
    </g>
    <g id="home-icon" viewBox="0 0 1000 1000" >
        <polygon points="402,916.5 402,622.5 598,622.5 598,916.5 843,916.5 843,524.5 990,524.5 500,83.5 10,524.5 157,524.5 157,916.5 "/>
    </g>
    <g id="check-icon" viewBox="0 0 119 119" >
        <path d="M46.067,100.981L0,54.914L15.891,39.022L50.151,73.282L106.303,17.13L118.11,28.937L46.067,100.981Z"/>
    </g>
    <g id="danger-icon" viewBox="0 0 1718 1718" >
        <path d="M1534.69,1595.91C1585.33,1595.91 1632.12,1568.89 1657.44,1525.04C1682.76,1481.19 1682.76,1427.16 1657.44,1383.31L981.643,212.804C956.324,168.951 909.534,141.937 858.897,141.937C808.26,141.937 761.469,168.952 736.151,212.805L60.362,1383.31C35.043,1427.16 35.043,1481.19 60.362,1525.04C85.68,1568.89 132.471,1595.91 183.108,1595.91L1534.69,1595.91ZM1289.2,1312.44L428.6,1312.44C428.6,1312.44 695.966,849.347 858.897,567.141L1289.2,1312.44Z" style="fill:#d1242e;"/>
        <path id="path17204" d="M858.897,340.365L1485.59,1425.83L232.206,1425.83L858.897,340.365Z" style="fill:white;"/>
        <circle id="path819" cx="858.898" cy="1284.1" r="113.386"/>
        <path id="rect825-4" d="M858.898,1142.36C865.307,1142.36 870.92,1138.06 872.584,1131.87L982.129,721.737C995.96,669.952 975.944,615.043 932.031,584.31C910.074,568.944 884.486,561.261 858.898,561.261C833.309,561.261 807.721,568.944 785.765,584.31C741.852,615.043 721.835,669.952 735.667,721.737L845.212,1131.87C846.875,1138.06 852.488,1142.36 858.898,1142.36Z" />
    </g>
    <g id="death-icon" viewBox="0 0 1000 1000" >
        <path d="M463.98,11.38C427.38,16.42 388.36,30.01 357.46,48.64C332.47,63.54 319.32,74.07 298.06,96.2C261.68,134.12 238.66,176.42 225.73,230.34C221.57,247.22 221.13,257.52 220.25,342.78C218.94,470.12 215.87,462.23 282.28,506.5L324.8,535L324.8,605.14L394.94,605.14L394.94,535L465.07,535L465.07,605.14L535.21,605.14L535.21,535L605.35,535L605.35,605.14L675.49,605.14L675.49,535L718,506.5C783.31,463.1 780.68,469.24 780.68,354.83C780.68,260.37 778.71,239.54 766.43,202.5C751.74,158.45 731.36,125.57 697.61,92.03C656.4,50.61 611.04,26.28 553.83,14.44C532.58,10.07 485.02,8.53 463.98,11.38ZM515.04,401.96C525.12,411.17 534.99,439 535.21,457.63L535.21,464.86L465.07,464.86L465.07,457.63C465.07,447.55 470.99,424.53 475.81,414.89C480.19,406.56 487.86,398.45 493.56,396.26C499.26,394.07 509.56,396.69 515.04,401.96ZM669.34,296.53C684.03,303.32 695.42,314.5 703.31,329.62C708.35,339.27 709.23,343.87 709.23,359.65C709.45,381.79 704.19,394.5 689.06,409.62C674.81,423.87 662.76,428.69 640.4,428.69C618.04,428.69 605.99,423.87 591.74,409.62C576.4,394.5 571.36,381.78 571.36,359.65C571.36,344.31 572.24,339.27 576.62,331.16C584.29,316.69 589.77,309.9 599.2,303.32C620.69,288.64 646.33,286.01 669.34,296.53ZM388.8,296.53C403.48,303.32 414.88,314.5 422.77,329.62C427.81,339.48 428.69,343.65 428.69,359.65C428.69,381.57 423.43,394.72 409.18,409.18C394.71,423.65 381.78,428.69 359.87,428.69C344.53,428.69 339.27,427.81 330.28,423.43C316.47,416.42 303.1,403.05 296.31,389.24C288.64,373.68 288.64,345.62 296.09,331.16C303.76,316.91 309.24,309.9 318.67,303.32C340.14,288.64 365.78,286.01 388.8,296.53Z" style="fill:rgb(34, 145, 167);"/>
        <path d="M128.2,503.87C112.85,509.35 99.92,518.56 92.47,529.3C85.9,539.16 79.32,556.48 79.32,564.37C79.32,568.75 78,569.85 69.9,570.95C47.32,574.46 25.85,590.24 15.76,610.62C8.31,625.74 8.09,654.02 15.1,669.14C21.02,682.29 37.24,698.51 50.39,704.43C65.51,711.44 94.01,711.22 108.47,703.99C119.21,698.73 130.61,689.09 136.96,679.88L140.47,674.62L252.91,724.37C314.72,751.77 366.22,775 367.1,776.1C368.63,777.41 286.44,815.55 282.28,815.55C281.62,815.55 276.14,810.29 270.01,803.71C254.89,787.71 241.08,781.79 219.6,781.79C192.2,781.57 171.16,794.28 158.01,818.17C151.22,830.88 150.56,833.51 150.56,850.61C150.56,865.95 151.44,871.21 155.82,880.2C166.34,901.46 187.16,916.8 209.3,919.87C218.94,921.19 219.16,921.41 220.48,931.05C222.45,945.95 229.03,958.89 240.43,970.06C255.33,985.18 267.17,989.79 289.74,989.79C312.1,989.79 324.15,984.97 338.4,970.72C352.65,956.47 358.56,942.67 358.78,924.04C358.78,915.49 358.34,906.29 357.68,903.44C356.58,898.4 366.45,893.8 608.2,786.4L859.82,674.4L863.33,679.88C869.69,689.09 881.08,698.73 891.82,703.99C900.36,708.37 905.85,709.25 920.97,709.25C943.33,709.25 955.38,704.43 969.63,690.18C984.97,675.06 990.01,662.34 990.01,640.21C989.79,624.43 988.91,619.83 983.87,610.18C972.91,589.14 952.75,574.45 930.61,570.95C921.62,569.64 921.4,569.42 919.87,559.55C916.58,537.19 901.02,516.81 879.54,506.73C869.68,502.13 863.98,501.03 850.83,501.03C823.43,501.25 802.17,513.74 789.24,537.63C782.88,549.46 782.01,553.63 781.79,566.78C781.79,575.11 782.23,584.53 782.89,587.38C783.99,592.64 778.94,595.05 641.96,655.98L500.15,719.32L358.11,656.2C220.47,594.83 216.31,592.86 217.4,587.6C218.06,584.53 218.5,575.11 218.28,566.78C218.06,548.81 211.49,533.68 198.33,520.53C180.8,503 150.77,495.76 128.2,503.87Z" style="fill:rgb(34, 145, 167);"/>
        <path d="M762.06,783.33C747.37,788.37 740.36,792.75 729.4,804.59C717.57,817.3 719.54,817.3 691.92,804.37L673.29,795.82L608.19,824.75C557.56,847.33 544.19,854.12 547.48,855.44C646.98,899.49 643.7,897.96 642.6,903.44C639.97,916.37 641.72,939.6 646.33,949.69C652.25,962.84 668.46,978.84 681.62,984.98C696.09,991.78 725.02,991.78 739.48,984.98C759.65,975.77 776.96,952.54 779.81,930.84C781.13,921.42 781.35,921.2 790.99,919.88C813.35,916.81 833.73,901.69 844.25,880.21C848.63,871.22 849.73,865.96 849.51,850.62C849.51,834.84 848.63,830.24 843.59,820.59C835.7,805.47 824.3,794.29 809.62,787.5C795.37,781.13 774.55,779.16 762.06,783.33Z" style="fill:rgb(34, 145, 167);"/>
    </g>
    <g id="gear-icon" viewBox="0 0 1000 1000" >
        <path d="M449.47,12.63C440.42,13.73 423.63,16.16 412.59,18.15L392.05,21.68L391.61,76.89L390.95,132.1L367.76,140.27C354.95,144.91 338.17,151.75 330.44,155.73L316.31,163.02L238.35,85.06L212.95,103.17C171.21,133.42 107.61,200.34 90.16,232.36L86.19,239.87L124.39,278.08L162.6,316.29L154.65,332.85C150.23,342.12 143.39,358.91 139.41,370.39L131.9,391.15L76.69,391.81L21.48,392.25L17.95,411.68C7.35,471.31 7.35,531.15 17.95,589.45L21.48,608.66L130.8,608.66L136.98,625.66C140.29,635.16 147.58,652.6 153.1,664.53L163.26,686.17L125.28,724.15C104.3,745.13 87.3,763.24 87.3,764.34C87.52,768.31 114.46,804.53 134.78,827.28C156.86,852.46 192.86,884.48 220.24,903.25L238.35,915.62L277.44,876.75L316.3,837.9L333.97,846.73C343.47,851.59 360.69,858.88 371.73,862.63L392.05,869.92L392.05,979.24L403.09,981.67C434.45,988.51 449.02,989.62 500.26,989.62C551.94,989.62 560.55,988.96 596.99,981.67L608.47,979.46L608.47,869.92L629.01,862.63C640.05,858.66 657.28,851.59 666.99,846.95L684.66,838.34L762.62,916.3L784.48,900.84C828.87,869.04 869.06,828.85 900.64,784.68L916.1,762.82L838.14,684.86L846.75,667.19C851.39,657.47 858.45,640.25 862.43,628.99L869.72,608.67L979.04,608.67L981.69,597.19C988.76,564.29 990.97,534.69 989.64,487.21C988.54,442.38 987.43,432.44 981.69,403.95L979.26,392.25L869.72,392.25L862.43,371.93C858.68,360.89 851.39,343.66 846.53,334.17L837.7,316.5L876.57,277.63L915.44,238.54L903.07,220.21C873.26,176.93 823.79,127.46 780.5,97.65L762.17,85.28L723.3,123.93L684.44,162.8L665.67,153.97C655.51,148.89 638.73,142.05 628.35,138.29L609.58,131.89L608.92,76.68L608.48,21.69L589.05,18.16C546.86,10.42 489.44,8.22 449.47,12.63ZM543.32,320.48C610.46,337.7 660.58,386.51 679.58,452.98C685.98,476.17 686.65,522.54 680.68,544.41C670.52,581.95 657.93,603.37 630.55,630.76C603.17,658.14 581.75,670.73 544.2,680.89C522.34,686.85 475.96,686.19 452.77,679.79C385.86,660.58 337.93,611.33 319.83,542.43C314.31,521.23 314.97,478.39 320.93,455.2C343.9,369.74 421.19,312.1 507.98,316.07C520.13,316.73 536.04,318.71 543.32,320.48Z" style="fill:rgb(128,128,128);"/>
    </g>
    <g id="upload-icon" viewBox="0 0 512 512" >
        <path d="M256,-0C397.29,-0 512,114.71 512,256C512,397.29 397.29,512 256,512C114.71,512 0,397.29 0,256C0,114.71 114.71,-0 256,-0ZM332.965,370.941L179.035,370.941L179.035,404.362L332.965,404.362L332.965,370.941ZM332.965,344.96L332.965,304.282L179.035,304.282L179.035,344.96L332.965,344.96ZM179.035,226.012L118.068,226.012L260.775,80.189L403.483,226.012L332.965,226.012L332.965,278.301L179.035,278.301L179.035,226.012Z" style="fill:rgb(200,200,200);"/>
    </g>
    <g id="left-double-arrow-icon" viewBox="0 0 898.3 898.3" >
        <path d="M778.1,882.5L344.7,449.2L778.1,15.8L898.3,136L585.1,449.2L898.3,762.3L778.1,882.5Z" style="fill-rule:nonzero;"/>
        <path d="M553.6,762.3L433.4,882.5L0,449.2L433.4,15.8L553.6,136L240.4,449.2L553.6,762.3Z" style="fill-rule:nonzero;"/>
    </g>
    <g id="right-double-arrow-icon" viewBox="0 0 898.3 898.3" >
        <polygon points="120.2,882.5 553.6,449.2 120.2,15.8 0,136 313.2,449.2 0,762.3"/>
		<polygon points="344.7,762.3 464.9,882.5 898.3,449.2 464.9,15.8 344.7,136 657.9,449.2"/>
    </g>
    <g id="up-double-arrow-icon" viewBox="0 0 898.3 898.3" >
        <path d="M15.8,778.1L449.1,344.7L882.5,778.1L762.3,898.3L449.1,585.1L136,898.3L15.8,778.1Z" style="fill-rule:nonzero;"/>
        <path d="M136,553.6L15.8,433.4L449.1,0L882.5,433.4L762.3,553.6L449.1,240.4L136,553.6Z" style="fill-rule:nonzero;"/>
    </g>
    <g id="down-double-arrow-icon" viewBox="0 0 898.3 898.3" >
        <path d="M15.8,120.2L449.1,553.6L882.5,120.2L762.3,0L449.1,313.2L136,0L15.8,120.2Z" style="fill-rule:nonzero;"/>
        <path d="M136,344.7L15.8,464.9L449.1,898.3L882.5,464.9L762.3,344.7L449.1,657.9L136,344.7Z" style="fill-rule:nonzero;"/>
    </g>
    <g id="slider-cursor-icon" viewBox="0 0 1000 1000" >
        <circle cx="500" cy="500" r="500" style="fill:rgb(255, 255, 255);"/>
        <circle cx="500" cy="500" r="425" style="fill:rgb(200, 200, 200);"/>
    </g>
    <g id="active-dock-item-icon" viewBox="0 0 1000 1000" >
        <circle cx="500" cy="500" r="500" style="fill:rgb(0, 0, 0);"/>
    </g>
    <g id="folder-icon" viewBox="0 0 64 64" >
        <path d="M1.022,49.117L1.022,6.329L4.516,5.077L17.017,5.077L19.764,6.966L22.195,10.21L55.864,10.21L59.072,13.033L59.072,19.601L10.981,19.601L1.022,49.117Z" style="fill:white;"/>
        <path d="M60.385,17.185C60.385,16.111 60.365,14.65 60.365,13.524C60.365,10.468 58.578,9.146 55.058,9.146C44.807,9.146 34.885,9.166 24.356,9.166C23.246,9.166 22.502,8.836 22.054,7.855C20.648,4.726 18.338,3.868 14.913,3.868C11.581,3.868 7.249,3.91 3.916,3.91C1.34,3.91 0,5.502 0,7.743L0,54.894C0,58.142 2.344,60.132 5.592,60.132C21.412,60.132 37.211,60.101 53.031,60.101C56.107,60.101 57.319,58.934 57.859,55.846C59.357,47.367 63.455,25.479 63.89,22.984C64.475,19.618 62.647,17.857 60.385,17.185ZM2.567,8.815C2.567,7.699 3.457,6.729 4.574,6.729C8.709,6.729 12.835,6.77 16.971,6.77C17.521,6.77 18.203,7.173 18.59,7.607C19.201,8.278 19.619,9.135 20.118,9.92C21.025,11.366 22.268,11.965 23.999,11.965C34.43,11.965 44.912,11.944 55.343,11.944C56.841,11.944 57.645,13.082 57.645,14.237L57.645,17.118C56.891,17.118 25.772,17.077 10.777,17.077C7.986,17.077 6.764,18.11 6.265,20.888C5.144,27.064 4.013,33.219 2.638,39.394C2.608,39.033 2.567,18.636 2.567,8.815Z" style="fill:rgb(34,145,167);fill-rule:nonzero;"/>
    </g>
    <g id="white-folder-icon" viewBox="0 0 64 64" >
        <path d="M60.385,17.185C60.385,16.111 60.365,14.65 60.365,13.524C60.365,10.468 58.578,9.146 55.058,9.146C44.807,9.146 34.885,9.166 24.356,9.166C23.246,9.166 22.502,8.836 22.054,7.855C20.648,4.726 18.338,3.868 14.913,3.868C11.581,3.868 7.249,3.91 3.916,3.91C1.34,3.91 0,5.502 0,7.743L0,54.894C0,58.142 2.344,60.132 5.592,60.132C21.412,60.132 37.211,60.101 53.031,60.101C56.107,60.101 57.319,58.934 57.859,55.846C59.357,47.367 63.455,25.479 63.89,22.984C64.475,19.618 62.647,17.857 60.385,17.185ZM2.567,8.815C2.567,7.699 3.457,6.729 4.574,6.729C8.709,6.729 12.835,6.77 16.971,6.77C17.521,6.77 18.203,7.173 18.59,7.607C19.201,8.278 19.619,9.135 20.118,9.92C21.025,11.366 22.268,11.965 23.999,11.965C34.43,11.965 44.912,11.944 55.343,11.944C56.841,11.944 57.645,13.082 57.645,14.237L57.645,17.118C56.891,17.118 25.772,17.077 10.777,17.077C7.986,17.077 6.764,18.11 6.265,20.888C5.144,27.064 4.013,33.219 2.638,39.394C2.608,39.033 2.567,18.636 2.567,8.815Z" style="fill:rgb(255,255,255);fill-rule:nonzero;"/>
    </g>
    <g id="black-line-folder-icon" viewBox="0 0 1000 1000" >
        <g transform="matrix(6.66665,0,0,6.66665,2.27374e-13,0.00145718)">
            <path d="M2.395,115.118L2.395,14.834L10.584,11.899L39.884,11.899L46.322,16.327L52.02,23.93L130.931,23.93L138.45,30.546L138.45,45.94L25.737,45.94L2.395,115.118Z" style="fill:white;"/>
            <path d="M141.527,40.277C141.527,37.76 141.48,34.336 141.48,31.697C141.48,24.534 137.292,21.436 129.042,21.436C105.016,21.436 81.762,21.483 57.084,21.483C54.483,21.483 52.739,20.709 51.689,18.41C48.394,11.077 42.98,9.066 34.952,9.066C27.143,9.066 16.99,9.164 9.178,9.164C3.141,9.164 0,12.895 0,18.148L0,128.658C0,136.27 5.494,140.934 13.106,140.934C50.184,140.934 87.213,140.862 124.291,140.862C131.501,140.862 134.341,138.127 135.607,130.889C139.118,111.016 148.723,59.716 149.742,53.869C151.113,45.98 146.829,41.852 141.527,40.277ZM6.016,20.66C6.016,18.045 8.102,15.771 10.72,15.771C20.412,15.771 30.082,15.867 39.776,15.867C41.065,15.867 42.663,16.812 43.57,17.829C45.002,19.402 45.982,21.41 47.152,23.25C49.277,26.639 52.191,28.043 56.248,28.043C80.695,28.043 105.263,27.994 129.71,27.994C133.221,27.994 135.105,30.661 135.105,33.368L135.105,40.12C133.338,40.12 60.403,40.024 25.259,40.024C18.717,40.024 15.853,42.445 14.684,48.956C12.056,63.431 9.405,77.857 6.183,92.33C6.113,91.484 6.016,43.678 6.016,20.66Z" style="fill-rule:nonzero;"/>
            <g transform="matrix(0.15,0,0,0.15,-3.41062e-14,-0.000218578)">
                <path d="M44.591,827.98L139.044,357.862C145.704,325.129 148.496,309.016 181.899,309.016L906.959,309.016C933.922,309.016 963.254,318.974 952.497,375.02L869.923,841.366C862.314,881.205 850.294,899.657 804.226,899.657L110.299,899.657C78.119,899.657 35.34,875.311 44.591,827.98Z" style="fill:white;stroke:black;stroke-width:1px;"/>
            </g>
        </g>
    </g>
    <g id="file-icon" viewBox="0 0 256 256" >
        <path d="M167.442,7.323L39.083,7.323L39.083,248.492L216.874,248.492L216.874,56.755L167.442,7.323Z" style="fill:white;"/>
        <path d="M220.352,49.019L175.511,4.179C172.858,1.522 169.183,0 165.428,0L45.732,0C37.87,0 31.473,6.397 31.473,14.259L31.473,241.741C31.473,249.603 37.87,256 45.732,256L210.268,256C218.13,256 224.527,249.603 224.527,241.741L224.527,59.097C224.527,55.291 223.046,51.71 220.352,49.019ZM213.15,241.743C213.15,243.334 211.858,244.625 210.268,244.625L45.732,244.625C44.142,244.625 42.851,243.334 42.851,241.743L42.854,14.259C42.854,12.669 44.145,11.378 45.732,11.378L163.289,11.378L163.289,47.742C163.289,55.186 169.345,61.239 176.786,61.239L213.15,61.239L213.15,241.743Z" style="fill-rule:nonzero;"/>
    </g>
    <g id="pdf-icon" viewBox="0 0 256 256" >
        <path d="M180.19,7.323L51.831,7.323L51.831,248.492L229.622,248.492L229.622,56.755L180.19,7.323Z" style="fill:white;"/>
        <path d="M233.1,49.019L188.259,4.179C185.606,1.522 181.931,0 178.176,0L58.48,0C50.618,0 44.221,6.397 44.221,14.259L44.221,241.741C44.221,249.603 50.618,256 58.48,256L223.016,256C230.878,256 237.275,249.603 237.275,241.741L237.275,59.097C237.275,55.291 235.794,51.71 233.1,49.019ZM225.898,241.743C225.898,243.334 224.606,244.625 223.016,244.625L58.48,244.625C56.89,244.625 55.599,243.334 55.599,241.743L55.602,14.259C55.602,12.669 56.893,11.378 58.48,11.378L176.037,11.378L176.037,47.742C176.037,55.186 182.093,61.239 189.534,61.239L225.898,61.239L225.898,241.743Z" style="fill-rule:nonzero;"/>
        <rect x="34.928" y="131.083" width="146.001" height="68.814" style="fill:white;"/>
        <path d="M195.337,130.49C195.337,123.234 189.446,117.344 182.191,117.344L31.871,117.344C24.615,117.344 18.725,123.234 18.725,130.49L18.725,201.695C18.725,208.95 24.615,214.841 31.871,214.841L182.191,214.841C189.446,214.841 195.337,208.95 195.337,201.695L195.337,130.49ZM88.546,189.451L88.546,142.773C88.546,139.632 91.095,137.084 94.235,137.084L110.127,137.084C118.118,137.084 124.617,143.583 124.617,151.574L124.617,180.65C124.617,188.643 118.118,195.142 110.127,195.142L94.235,195.142C91.092,195.14 88.546,192.591 88.546,189.451ZM51.255,195.14C48.115,195.14 45.566,192.591 45.566,189.451L45.566,142.773C45.566,139.632 48.115,137.084 51.255,137.084L67.969,137.084C75.507,137.084 81.64,143.217 81.64,150.754L81.64,162.499C81.64,170.034 75.507,176.17 67.969,176.17L56.944,176.17L56.944,189.453C56.944,192.591 54.396,195.14 51.255,195.14ZM154.24,160.42C157.38,160.42 159.928,162.969 159.928,166.109C159.928,169.249 157.38,171.798 154.24,171.798L143.755,171.798L143.755,189.448C143.755,192.588 141.206,195.137 138.066,195.137C134.926,195.137 132.377,192.588 132.377,189.448L132.377,142.77C132.377,139.63 134.926,137.081 138.066,137.081L162.762,137.081C165.902,137.081 168.451,139.63 168.451,142.77C168.451,145.91 165.902,148.459 162.762,148.459L143.755,148.459L143.755,160.42L154.24,160.42ZM113.239,180.647L113.239,151.571C113.239,149.853 111.843,148.459 110.127,148.459L99.924,148.459L99.924,183.759L110.127,183.759C111.845,183.762 113.239,182.362 113.239,180.647ZM70.259,162.496L70.259,150.752C70.259,149.489 69.232,148.459 67.967,148.459L56.944,148.459L56.944,164.786L67.969,164.786C69.232,164.789 70.259,163.759 70.259,162.496Z" style="fill:rgb(34,145,167);"/>
    </g>
    <g id="doc-icon" viewBox="0 0 150 150" >
        <path d="M105.58,4.291L30.37,4.291L30.37,145.601L134.544,145.601L134.544,33.255L105.58,4.291Z" style="fill:white;"/>
        <path d="M136.582,28.722L110.308,2.449C108.754,0.892 106.6,0 104.4,0L34.266,0C29.659,0 25.911,3.748 25.911,8.355L25.911,141.645C25.911,146.252 29.659,150 34.266,150L130.673,150C135.28,150 139.028,146.252 139.028,141.645L139.028,34.627C139.028,32.397 138.161,30.299 136.582,28.722ZM132.362,141.646C132.362,142.579 131.605,143.335 130.673,143.335L34.266,143.335C33.334,143.335 32.578,142.579 32.578,141.646L32.579,8.355C32.579,7.423 33.336,6.667 34.266,6.667L103.147,6.667L103.147,27.974C103.147,32.336 106.695,35.882 111.055,35.882L132.362,35.882L132.362,141.646Z" style="fill-rule:nonzero;"/>
        <rect x="20.466" y="76.806" width="85.547" height="40.321" style="fill:white;"/>
        <path d="M106.753,68.756C111.004,68.756 114.455,72.207 114.455,76.459L114.455,118.181C114.455,122.432 111.004,125.883 106.753,125.883L60.756,125.883L60.756,125.853L50.782,125.853L50.782,125.883L18.674,125.883C14.423,125.883 10.972,122.432 10.972,118.181L10.972,76.459C10.972,72.207 14.423,68.756 18.674,68.756L50,68.756L50,68.726L63.891,68.726L63.891,68.756L106.753,68.756ZM60.756,80.292L60.473,80.292C55.79,80.292 51.982,84.1 51.982,88.783L51.982,105.819C51.982,110.503 55.79,114.311 60.473,114.311L63.891,114.311L63.891,114.341L64.528,114.341C69.21,114.341 73.018,110.533 73.018,105.85L73.018,88.813C73.018,84.131 69.21,80.323 64.528,80.323L60.756,80.323L60.756,80.292ZM26.688,111.006L26.688,83.656C26.688,81.816 28.182,80.323 30.022,80.323L39.334,80.323C44.016,80.323 47.824,84.131 47.824,88.813L47.824,105.85C47.824,110.533 44.016,114.341 39.334,114.341L30.022,114.341C28.18,114.34 26.688,112.846 26.688,111.006ZM90.164,107.652L95.368,107.652C97.208,107.652 98.702,109.146 98.702,110.985C98.702,112.825 97.208,114.319 95.368,114.319L88.63,114.319L88.63,114.341L85.941,114.341C81.258,114.341 77.45,110.533 77.45,105.85L77.45,88.813C77.45,84.131 81.258,80.323 85.941,80.323L88.78,80.323C88.788,80.323 88.795,80.322 88.803,80.321L95.368,80.321C97.208,80.321 98.702,81.814 98.702,83.654C98.702,85.494 97.208,86.988 95.368,86.988L85.941,86.988C84.935,86.988 84.117,87.804 84.117,88.811L84.117,105.848C84.117,106.853 84.934,107.673 85.941,107.671L90.164,107.671L90.164,107.652ZM63.891,86.988L64.528,86.988C65.533,86.988 66.351,87.804 66.351,88.811L66.351,105.848C66.351,106.853 65.534,107.673 64.528,107.671L60.756,107.671L60.756,107.641L60.473,107.641C59.466,107.643 58.649,106.822 58.649,105.818L58.649,88.781C58.649,87.774 59.467,86.957 60.473,86.957L63.891,86.957L63.891,86.988ZM41.157,105.848L41.157,88.811C41.157,87.804 40.339,86.988 39.334,86.988L33.355,86.988L33.355,107.671L39.334,107.671C40.34,107.673 41.157,106.853 41.157,105.848Z" style="fill:rgb(34,145,167);"/>
    </g>
    <g id="vectors-file-icon" viewBox="0 0 1000 1000" >
        <g transform="matrix(6.66667,0,0,6.66667,-1.7053e-13,0)">
            <path d="M98.111,4.291L22.9,4.291L22.9,145.601L127.075,145.601L127.075,33.255L98.111,4.291Z" style="fill:white;"/>
            <path d="M129.113,28.722L102.838,2.449C101.284,0.892 99.131,0 96.93,0L26.796,0C22.189,0 18.441,3.748 18.441,8.355L18.441,141.645C18.441,146.252 22.189,150 26.796,150L123.204,150C127.811,150 131.559,146.252 131.559,141.645L131.559,34.627C131.559,32.397 130.691,30.299 129.113,28.722ZM124.893,141.646C124.893,142.579 124.136,143.335 123.204,143.335L26.796,143.335C25.864,143.335 25.108,142.579 25.108,141.646L25.11,8.355C25.11,7.423 25.866,6.667 26.796,6.667L95.677,6.667L95.677,27.974C95.677,32.336 99.226,35.882 103.586,35.882L124.893,35.882L124.893,141.646Z" style="fill-rule:nonzero;"/>
        </g>
        <g transform="matrix(2.38945,5.85246e-16,-5.85246e-16,2.38945,194.151,297.491)">
            <g>
                <g>
                    <path d="M21.6,12.7C16.5,14.4 11.7,19.5 10.5,24.5C8.9,31 12.7,38.3 19.3,41.8C21.4,42.9 22.3,43.1 25.7,43.1C28.9,43.1 30,42.9 31.9,41.9C34.8,40.5 38.5,36.8 39.9,33.9L41,31.7L64.1,31.7C84.8,31.7 87.1,31.8 86,32.4C83.6,33.6 83.1,36.2 84.7,38.3C86.2,40.2 87.3,40.1 94.2,37.7C100.5,35.4 102.7,34.1 102.7,32.4C102.7,31.5 106.8,31.5 108,32.4C108.5,32.8 109.7,33.1 110.6,33.1L112.3,33.1L112.3,43.3L143.7,43.3L143.7,33.1L146,33.1C147.6,33.1 148.6,32.9 149.2,32.4C149.7,31.9 150.8,31.7 152.1,31.7C154,31.7 154.2,31.8 154.9,33.5C155.6,35.1 156,35.4 159,36.5C160.9,37.2 163.9,38.3 165.8,39.1C167.7,39.8 169.5,40.4 169.8,40.4C170.1,40.4 171,39.8 171.8,39.2C174.2,37.2 173.6,34.2 170.6,32.6L168.9,31.7L215.1,31.7L216,34C217.3,36.9 220.6,40.3 223.7,41.9C226.1,43.1 226.9,43.2 230.3,43.2C233.9,43.2 234.4,43.1 237.1,41.6C240.5,39.8 242.8,37.3 244.5,33.7C246.3,30 246.2,25.3 244.4,21.6C242.7,18.2 239.7,15.2 236.3,13.5C234.1,12.4 233.1,12.2 230.2,12.2C227.2,12.2 226.3,12.4 223.7,13.7C220.3,15.4 217.5,18.1 216,21.4L215,23.4L143.6,23.4L143.6,11.8L112.3,11.8L112.3,23.4L40.9,23.4L39.4,20.6C36,14.3 28,10.6 21.6,12.7ZM29.6,20.9C34.8,23.4 34.8,32.4 29.6,34.7C24.6,37 18.9,34.5 17.9,29.8C16.7,22.7 23.1,17.7 29.6,20.9ZM135.8,19.9L135.8,35.5L120.2,35.5L120.2,19.9L135.8,19.9ZM234.8,21.2C237.2,23 237.9,24.4 237.9,27.8C237.9,31.2 237.3,32.5 234.8,34.4C233,35.7 229.1,35.9 226.5,34.8C221.2,32.4 221.1,23.6 226.4,20.9C228.7,19.6 233,19.8 234.8,21.2Z" style="fill:rgb(128,128,128);fill-rule:nonzero;stroke:rgb(128,128,128);stroke-width:6.28px;"/>
                    <path d="M73.1,39.2C69.6,41.3 64.9,44.6 64.1,45.6C63.1,46.8 63.4,49.3 64.7,50.5C66.5,52.3 68.2,52 72.2,49.2C74.2,47.9 76.7,46.2 77.9,45.5C80.3,44.1 81,43.2 81,41.2C81,39.7 80.3,38.7 78.8,37.9C77.3,37.1 76.4,37.3 73.1,39.2Z" style="fill:rgb(128,128,128);fill-rule:nonzero;stroke:rgb(128,128,128);stroke-width:6.28px;"/>
                    <path d="M178.4,38.3C177,38.9 175.9,40.6 175.9,42.1C175.9,43.8 177.1,44.8 183.7,49.2C189.4,52.9 190.2,53.1 192.4,51.1C193.5,50 193.7,48.1 193,46.6C192.1,44.9 181.3,37.8 179.9,37.9C179.6,37.9 178.9,38.1 178.4,38.3Z" style="fill:rgb(128,128,128);fill-rule:nonzero;stroke:rgb(128,128,128);stroke-width:6.28px;"/>
                    <path d="M56.8,51.7C55.2,52.4 46.4,61.8 46.4,62.9C46.3,65.8 47.7,67.8 50.1,67.8C51.7,67.8 52,67.5 57.7,61.5C61.2,57.7 62.1,56.5 62.1,55.4C62.1,52.9 59.1,50.7 56.8,51.7Z" style="fill:rgb(128,128,128);fill-rule:nonzero;stroke:rgb(128,128,128);stroke-width:6.28px;"/>
                    <path d="M196.9,52.7C195.4,53.5 194.8,54.5 194.8,56.2C194.8,57.5 195.5,58.5 199.8,63C202.5,66 205.2,68.4 205.7,68.6C208,69.2 210.4,67.3 210.4,64.8C210.4,63.6 209.8,62.6 207.7,60.2C206.2,58.4 203.9,56 202.4,54.6C199.9,52.1 198.7,51.7 196.9,52.7Z" style="fill:rgb(128,128,128);fill-rule:nonzero;stroke:rgb(128,128,128);stroke-width:6.28px;"/>
                    <path d="M41.5,69.7C39.7,70.5 33.1,81.4 33.1,83.7C33.1,86.7 37.6,88.4 39.6,86.1C41.3,84.3 46.9,74.3 46.9,73.1C46.9,70.8 43.7,68.8 41.5,69.7Z" style="fill:rgb(128,128,128);fill-rule:nonzero;stroke:rgb(128,128,128);stroke-width:6.28px;"/>
                    <path d="M212.1,70.8C210.9,71.4 209.6,73.1 209.6,74.3C209.6,74.6 211.2,77.6 213.2,81C216.1,86.1 217,87.4 218.2,87.9C220.7,89 223.4,87.2 223.4,84.4C223.4,83 218.7,74.3 216.8,72.1C215,70.3 214,70 212.1,70.8Z" style="fill:rgb(128,128,128);fill-rule:nonzero;stroke:rgb(128,128,128);stroke-width:6.28px;"/>
                    <path d="M29.6,91.5C28.5,92.5 25.6,100.5 24.9,104.3C24.4,107.2 26,109.3 28.7,109.3C30.4,109.3 32.5,107.6 32.5,106.3C32.5,105.9 33.3,103 34.4,99.8C35.5,96.4 36.2,93.7 36,93.1C35.2,90.4 31.6,89.5 29.6,91.5Z" style="fill:rgb(128,128,128);fill-rule:nonzero;stroke:rgb(128,128,128);stroke-width:6.28px;"/>
                    <path d="M221.5,92.7C219.9,94.4 219.9,94.4 222.1,101.7C224.4,109.3 224.4,109.4 226.1,110C227.4,110.6 227.9,110.6 229.2,110C232.1,108.8 232.1,106.8 229.4,98.2C228,93.8 227.3,92.4 226,91.8C224.1,91 223,91.3 221.5,92.7Z" style="fill:rgb(128,128,128);fill-rule:nonzero;stroke:rgb(128,128,128);stroke-width:6.28px;"/>
                    <path d="M24.9,113.5C23.2,114.1 22.5,116.3 22.2,121.2L21.9,125.9L10,125.9L10,157.3L41.4,157.3L41.4,125.9L29.8,125.9L30.1,121.1C30.5,115.6 30.3,114.6 28.5,113.7C26.9,112.9 26.4,112.9 24.9,113.5ZM33.5,133.8L33.5,149.4L17.9,149.4L17.9,133.8L33.5,133.8Z" style="fill:rgb(128,128,128);fill-rule:nonzero;stroke:rgb(128,128,128);stroke-width:6.28px;"/>
                    <path d="M226.8,115.6C225.6,116.8 225.6,116.8 225.9,121.4L226.2,126L214.6,126L214.6,157.4L246,157.4L246,126L234.2,126L233.9,121.8C233.6,117.5 232.8,115.3 231.5,114.7C229.8,114.1 228,114.4 226.8,115.6ZM238.2,133.8L238.2,149.4L222.6,149.4L222.6,133.8L238.2,133.8Z" style="fill:rgb(128,128,128);fill-rule:nonzero;stroke:rgb(128,128,128);stroke-width:6.28px;"/>
                </g>
            </g>
        </g>
    </g>
    <g id="scripted-file-icon" viewBox="0 0 1000 1000" >
        <g transform="matrix(6.66667,0,0,6.66667,-1.7053e-13,0)">
            <path d="M98.111,4.291L22.9,4.291L22.9,145.601L127.075,145.601L127.075,33.255L98.111,4.291Z" style="fill:white;"/>
            <path d="M129.113,28.722L102.838,2.449C101.284,0.892 99.131,0 96.93,0L26.796,0C22.189,0 18.441,3.748 18.441,8.355L18.441,141.645C18.441,146.252 22.189,150 26.796,150L123.204,150C127.811,150 131.559,146.252 131.559,141.645L131.559,34.627C131.559,32.397 130.691,30.299 129.113,28.722ZM124.893,141.646C124.893,142.579 124.136,143.335 123.204,143.335L26.796,143.335C25.864,143.335 25.108,142.579 25.108,141.646L25.11,8.355C25.11,7.423 25.866,6.667 26.796,6.667L95.677,6.667L95.677,27.974C95.677,32.336 99.226,35.882 103.586,35.882L124.893,35.882L124.893,141.646Z" style="fill-rule:nonzero;"/>
        </g>
        <g transform="matrix(3.19203,0,0,3.19203,260.597,260.598)">
            <path d="M67.421,1.895C66.063,2.06 63.545,2.424 61.888,2.722L58.807,3.252L58.742,11.534L58.643,19.815L55.164,21.041C53.243,21.737 50.726,22.763 49.566,23.359L47.447,24.453L35.753,12.759L31.942,15.476C25.682,20.013 16.142,30.051 13.524,34.854L12.929,35.981L18.659,41.712L24.39,47.444L23.198,49.928C22.534,51.318 21.508,53.837 20.912,55.558L19.785,58.672L11.503,58.771L3.222,58.838L2.693,61.752C1.102,70.697 1.102,79.673 2.693,88.418L3.222,91.299L19.62,91.299L20.547,93.849C21.043,95.274 22.137,97.89 22.965,99.679L24.489,102.925L18.792,108.622C15.645,111.769 13.095,114.486 13.095,114.651C13.128,115.246 17.169,120.679 20.217,124.092C23.529,127.869 28.929,132.672 33.036,135.487L35.753,137.343L41.616,131.513L47.445,125.685L50.096,127.01C51.521,127.739 54.103,128.832 55.76,129.394L58.807,130.488L58.807,146.886L60.463,147.25C65.167,148.277 67.353,148.443 75.039,148.443C82.791,148.443 84.083,148.344 89.549,147.25L91.271,146.919L91.271,130.488L94.352,129.394C96.007,128.799 98.592,127.739 100.049,127.043L102.699,125.751L114.393,137.445L117.672,135.126C124.331,130.356 130.359,124.328 135.096,117.702L137.415,114.423L125.721,102.729L127.012,100.079C127.708,98.621 128.768,96.037 129.364,94.349L130.458,91.3L146.856,91.3L147.254,89.579C148.314,84.643 148.646,80.204 148.446,73.081C148.281,66.357 148.115,64.866 147.254,60.592L146.889,58.838L130.458,58.838L129.364,55.789C128.802,54.134 127.708,51.549 126.979,50.126L125.655,47.475L131.486,41.645L137.316,35.781L135.461,33.032C130.989,26.54 123.568,19.119 117.075,14.648L114.325,12.792L108.495,18.59L102.666,24.42L99.851,23.095C98.327,22.333 95.81,21.308 94.253,20.743L91.437,19.783L91.338,11.502L91.272,3.254L88.357,2.724C82.029,1.563 73.416,1.233 67.421,1.895ZM81.498,48.072C91.569,50.655 99.087,57.976 101.937,67.947C102.897,71.426 102.997,78.381 102.102,81.661C100.578,87.293 98.69,90.506 94.583,94.614C90.476,98.721 87.263,100.61 81.63,102.134C78.351,103.028 71.394,102.929 67.916,101.968C57.879,99.087 50.69,91.7 47.975,81.364C47.146,78.185 47.246,71.759 48.14,68.28C51.585,55.461 63.179,46.815 76.197,47.411C78.019,47.51 80.406,47.806 81.498,48.072Z" style="fill:rgb(128,128,128);"/>
        </g>
    </g>
    <g id="enter-icon" viewBox="0 0 1000 1000" >
        <path d="M372.18,317.62C398.674,314.345 426.769,312.116 456.486,311.049L456.486,86.543L915.694,86.543L915.694,913.457L456.486,913.457L456.486,578.059C425.368,579.187 397.341,581.649 372.18,585.331L372.18,935.115C372.18,970.926 401.254,1000 437.064,1000L935.115,1000C970.926,1000 1000,970.926 1000,935.115L1000,64.885C1000,29.074 970.926,0 935.115,0L437.064,0C401.254,0 372.18,29.074 372.18,64.885L372.18,317.62Z"/>
        <path d="M219.398,847.832C111.294,718.366 93.012,520.886 517.874,527.517L517.874,686.985L883.021,445.715L517.874,204.445L517.874,360.499C9.151,351.767 -47.577,657.179 219.398,847.832Z" style="fill-rule:nonzero;"/>
    </g>
    <g id="out-icon" viewBox="0 0 1000 1000" >
        <path d="M372.302,140L456.486,140L456.486,86.543L915.694,86.543L915.694,913.457L456.486,913.457L456.486,751.138L372.284,751.138L372.18,751.562L372.18,935.115C372.18,970.926 401.254,1000 437.064,1000L935.115,1000C970.926,1000 1000,970.926 1000,935.115L1000,64.885C1000,29.074 970.926,0 935.115,0L437.064,0C401.254,0 372.18,29.074 372.18,64.885L372.18,139.869L372.302,140Z"/>
        <path d="M663.623,847.832C771.726,718.366 790.009,520.886 365.147,527.517L365.147,686.985L0,445.715L365.147,204.445L365.147,360.499C873.87,351.767 930.598,657.179 663.623,847.832Z" style="fill-rule:nonzero;"/>
    </g>
    <g id="speech-balloon-icon" viewBox="0 0 1000 1000" >
        <path d="M207.319,914.765L205.919,739.165C-147.083,475.965 93.09,13.597 513.388,55.784C1161.1,120.799 1107.67,827.867 418.328,817.199L207.319,914.765Z" style="fill:white;stroke:black;stroke-width:1px;"/>
        <path d="M172.653,977.245L172.653,755.816C62.653,676.429 0,562.347 0,440.204C0,210 224.286,22.755 500,22.755C775.714,22.755 1000,210 1000,440.204C1000,670.408 775.714,857.653 500,857.653C467.347,857.653 434.49,854.898 402.041,849.49L172.653,977.245ZM500,90C261.429,90 67.245,247.143 67.245,440.204C67.245,544.898 124.694,643.367 224.898,710.306L239.796,720.306L239.796,862.755L390.306,778.98L402.245,781.224C434.49,787.245 467.347,790.306 499.898,790.306C738.469,790.306 932.653,633.163 932.653,440.102C932.755,247.143 738.571,90 500,90Z" style="fill-rule:nonzero;"/>
    </g>
    <g id="add-element-icon" viewBox="0 0 1000 1000" >
        <g transform="matrix(6.66667,0,0,6.66667,-1.7053e-13,0)">
            <path d="M98.111,4.291L22.9,4.291L22.9,145.601L127.075,145.601L127.075,33.255L98.111,4.291Z" style="fill:white;"/>
            <path d="M129.113,28.722L102.838,2.449C101.284,0.892 99.131,0 96.93,0L26.796,0C22.189,0 18.441,3.748 18.441,8.355L18.441,141.645C18.441,146.252 22.189,150 26.796,150L123.204,150C127.811,150 131.559,146.252 131.559,141.645L131.559,34.627C131.559,32.397 130.691,30.299 129.113,28.722ZM124.893,141.646C124.893,142.579 124.136,143.335 123.204,143.335L26.796,143.335C25.864,143.335 25.108,142.579 25.108,141.646L25.11,8.355C25.11,7.423 25.866,6.667 26.796,6.667L95.677,6.667L95.677,27.974C95.677,32.336 99.226,35.882 103.586,35.882L124.893,35.882L124.893,141.646Z" style="fill-rule:nonzero;"/>
        </g>
        <g transform="matrix(3.34501,0,0,3.34501,498.248,498.248)">
            <circle cx="75" cy="75" r="75" style="fill:rgb(34,145,167);"/>
            <g>
                <path d="M75,30L75,120" style="fill:none;stroke:white;stroke-width:12px;"/>
                <path d="M30,75L120,75" style="fill:none;stroke:white;stroke-width:12px;"/>
            </g>
        </g>
    </g>
    <g id="add-vectors-element-icon" viewBox="0 0 1000 1000" >
        <g transform="matrix(6.66667,0,0,6.66667,-1.7053e-13,0)">
            <path d="M98.111,4.291L22.9,4.291L22.9,145.601L127.075,145.601L127.075,33.255L98.111,4.291Z" style="fill:white;"/>
            <path d="M129.113,28.722L102.838,2.449C101.284,0.892 99.131,0 96.93,0L26.796,0C22.189,0 18.441,3.748 18.441,8.355L18.441,141.645C18.441,146.252 22.189,150 26.796,150L123.204,150C127.811,150 131.559,146.252 131.559,141.645L131.559,34.627C131.559,32.397 130.691,30.299 129.113,28.722ZM124.893,141.646C124.893,142.579 124.136,143.335 123.204,143.335L26.796,143.335C25.864,143.335 25.108,142.579 25.108,141.646L25.11,8.355C25.11,7.423 25.866,6.667 26.796,6.667L95.677,6.667L95.677,27.974C95.677,32.336 99.226,35.882 103.586,35.882L124.893,35.882L124.893,141.646Z" style="fill-rule:nonzero;"/>
        </g>
        <g transform="matrix(2.38945,5.85246e-16,-5.85246e-16,2.38945,194.151,297.491)">
            <g>
                <g>
                    <path d="M21.6,12.7C16.5,14.4 11.7,19.5 10.5,24.5C8.9,31 12.7,38.3 19.3,41.8C21.4,42.9 22.3,43.1 25.7,43.1C28.9,43.1 30,42.9 31.9,41.9C34.8,40.5 38.5,36.8 39.9,33.9L41,31.7L64.1,31.7C84.8,31.7 87.1,31.8 86,32.4C83.6,33.6 83.1,36.2 84.7,38.3C86.2,40.2 87.3,40.1 94.2,37.7C100.5,35.4 102.7,34.1 102.7,32.4C102.7,31.5 106.8,31.5 108,32.4C108.5,32.8 109.7,33.1 110.6,33.1L112.3,33.1L112.3,43.3L143.7,43.3L143.7,33.1L146,33.1C147.6,33.1 148.6,32.9 149.2,32.4C149.7,31.9 150.8,31.7 152.1,31.7C154,31.7 154.2,31.8 154.9,33.5C155.6,35.1 156,35.4 159,36.5C160.9,37.2 163.9,38.3 165.8,39.1C167.7,39.8 169.5,40.4 169.8,40.4C170.1,40.4 171,39.8 171.8,39.2C174.2,37.2 173.6,34.2 170.6,32.6L168.9,31.7L215.1,31.7L216,34C217.3,36.9 220.6,40.3 223.7,41.9C226.1,43.1 226.9,43.2 230.3,43.2C233.9,43.2 234.4,43.1 237.1,41.6C240.5,39.8 242.8,37.3 244.5,33.7C246.3,30 246.2,25.3 244.4,21.6C242.7,18.2 239.7,15.2 236.3,13.5C234.1,12.4 233.1,12.2 230.2,12.2C227.2,12.2 226.3,12.4 223.7,13.7C220.3,15.4 217.5,18.1 216,21.4L215,23.4L143.6,23.4L143.6,11.8L112.3,11.8L112.3,23.4L40.9,23.4L39.4,20.6C36,14.3 28,10.6 21.6,12.7ZM29.6,20.9C34.8,23.4 34.8,32.4 29.6,34.7C24.6,37 18.9,34.5 17.9,29.8C16.7,22.7 23.1,17.7 29.6,20.9ZM135.8,19.9L135.8,35.5L120.2,35.5L120.2,19.9L135.8,19.9ZM234.8,21.2C237.2,23 237.9,24.4 237.9,27.8C237.9,31.2 237.3,32.5 234.8,34.4C233,35.7 229.1,35.9 226.5,34.8C221.2,32.4 221.1,23.6 226.4,20.9C228.7,19.6 233,19.8 234.8,21.2Z" style="fill:rgb(128,128,128);fill-rule:nonzero;stroke:rgb(128,128,128);stroke-width:6.28px;"/>
                    <path d="M73.1,39.2C69.6,41.3 64.9,44.6 64.1,45.6C63.1,46.8 63.4,49.3 64.7,50.5C66.5,52.3 68.2,52 72.2,49.2C74.2,47.9 76.7,46.2 77.9,45.5C80.3,44.1 81,43.2 81,41.2C81,39.7 80.3,38.7 78.8,37.9C77.3,37.1 76.4,37.3 73.1,39.2Z" style="fill:rgb(128,128,128);fill-rule:nonzero;stroke:rgb(128,128,128);stroke-width:6.28px;"/>
                    <path d="M178.4,38.3C177,38.9 175.9,40.6 175.9,42.1C175.9,43.8 177.1,44.8 183.7,49.2C189.4,52.9 190.2,53.1 192.4,51.1C193.5,50 193.7,48.1 193,46.6C192.1,44.9 181.3,37.8 179.9,37.9C179.6,37.9 178.9,38.1 178.4,38.3Z" style="fill:rgb(128,128,128);fill-rule:nonzero;stroke:rgb(128,128,128);stroke-width:6.28px;"/>
                    <path d="M56.8,51.7C55.2,52.4 46.4,61.8 46.4,62.9C46.3,65.8 47.7,67.8 50.1,67.8C51.7,67.8 52,67.5 57.7,61.5C61.2,57.7 62.1,56.5 62.1,55.4C62.1,52.9 59.1,50.7 56.8,51.7Z" style="fill:rgb(128,128,128);fill-rule:nonzero;stroke:rgb(128,128,128);stroke-width:6.28px;"/>
                    <path d="M196.9,52.7C195.4,53.5 194.8,54.5 194.8,56.2C194.8,57.5 195.5,58.5 199.8,63C202.5,66 205.2,68.4 205.7,68.6C208,69.2 210.4,67.3 210.4,64.8C210.4,63.6 209.8,62.6 207.7,60.2C206.2,58.4 203.9,56 202.4,54.6C199.9,52.1 198.7,51.7 196.9,52.7Z" style="fill:rgb(128,128,128);fill-rule:nonzero;stroke:rgb(128,128,128);stroke-width:6.28px;"/>
                    <path d="M41.5,69.7C39.7,70.5 33.1,81.4 33.1,83.7C33.1,86.7 37.6,88.4 39.6,86.1C41.3,84.3 46.9,74.3 46.9,73.1C46.9,70.8 43.7,68.8 41.5,69.7Z" style="fill:rgb(128,128,128);fill-rule:nonzero;stroke:rgb(128,128,128);stroke-width:6.28px;"/>
                    <path d="M212.1,70.8C210.9,71.4 209.6,73.1 209.6,74.3C209.6,74.6 211.2,77.6 213.2,81C216.1,86.1 217,87.4 218.2,87.9C220.7,89 223.4,87.2 223.4,84.4C223.4,83 218.7,74.3 216.8,72.1C215,70.3 214,70 212.1,70.8Z" style="fill:rgb(128,128,128);fill-rule:nonzero;stroke:rgb(128,128,128);stroke-width:6.28px;"/>
                    <path d="M29.6,91.5C28.5,92.5 25.6,100.5 24.9,104.3C24.4,107.2 26,109.3 28.7,109.3C30.4,109.3 32.5,107.6 32.5,106.3C32.5,105.9 33.3,103 34.4,99.8C35.5,96.4 36.2,93.7 36,93.1C35.2,90.4 31.6,89.5 29.6,91.5Z" style="fill:rgb(128,128,128);fill-rule:nonzero;stroke:rgb(128,128,128);stroke-width:6.28px;"/>
                    <path d="M221.5,92.7C219.9,94.4 219.9,94.4 222.1,101.7C224.4,109.3 224.4,109.4 226.1,110C227.4,110.6 227.9,110.6 229.2,110C232.1,108.8 232.1,106.8 229.4,98.2C228,93.8 227.3,92.4 226,91.8C224.1,91 223,91.3 221.5,92.7Z" style="fill:rgb(128,128,128);fill-rule:nonzero;stroke:rgb(128,128,128);stroke-width:6.28px;"/>
                    <path d="M24.9,113.5C23.2,114.1 22.5,116.3 22.2,121.2L21.9,125.9L10,125.9L10,157.3L41.4,157.3L41.4,125.9L29.8,125.9L30.1,121.1C30.5,115.6 30.3,114.6 28.5,113.7C26.9,112.9 26.4,112.9 24.9,113.5ZM33.5,133.8L33.5,149.4L17.9,149.4L17.9,133.8L33.5,133.8Z" style="fill:rgb(128,128,128);fill-rule:nonzero;stroke:rgb(128,128,128);stroke-width:6.28px;"/>
                    <path d="M226.8,115.6C225.6,116.8 225.6,116.8 225.9,121.4L226.2,126L214.6,126L214.6,157.4L246,157.4L246,126L234.2,126L233.9,121.8C233.6,117.5 232.8,115.3 231.5,114.7C229.8,114.1 228,114.4 226.8,115.6ZM238.2,133.8L238.2,149.4L222.6,149.4L222.6,133.8L238.2,133.8Z" style="fill:rgb(128,128,128);fill-rule:nonzero;stroke:rgb(128,128,128);stroke-width:6.28px;"/>
                </g>
            </g>
        </g>
        <g transform="matrix(3.34501,0,0,3.34501,498.248,498.248)">
            <circle cx="75" cy="75" r="75" style="fill:rgb(34,145,167);"/>
            <g>
                <path d="M75,30L75,120" style="fill:none;stroke:white;stroke-width:12px;"/>
                <path d="M30,75L120,75" style="fill:none;stroke:white;stroke-width:12px;"/>
            </g>
        </g>
    </g>
    <g id="add-scripted-element-icon" viewBox="0 0 1000 1000" >
        <g transform="matrix(6.66667,0,0,6.66667,-1.7053e-13,0)">
            <path d="M98.111,4.291L22.9,4.291L22.9,145.601L127.075,145.601L127.075,33.255L98.111,4.291Z" style="fill:white;"/>
            <path d="M129.113,28.722L102.838,2.449C101.284,0.892 99.131,0 96.93,0L26.796,0C22.189,0 18.441,3.748 18.441,8.355L18.441,141.645C18.441,146.252 22.189,150 26.796,150L123.204,150C127.811,150 131.559,146.252 131.559,141.645L131.559,34.627C131.559,32.397 130.691,30.299 129.113,28.722ZM124.893,141.646C124.893,142.579 124.136,143.335 123.204,143.335L26.796,143.335C25.864,143.335 25.108,142.579 25.108,141.646L25.11,8.355C25.11,7.423 25.866,6.667 26.796,6.667L95.677,6.667L95.677,27.974C95.677,32.336 99.226,35.882 103.586,35.882L124.893,35.882L124.893,141.646Z" style="fill-rule:nonzero;"/>
        </g>
        <g transform="matrix(3.19203,0,0,3.19203,260.597,260.598)">
            <path d="M67.421,1.895C66.063,2.06 63.545,2.424 61.888,2.722L58.807,3.252L58.742,11.534L58.643,19.815L55.164,21.041C53.243,21.737 50.726,22.763 49.566,23.359L47.447,24.453L35.753,12.759L31.942,15.476C25.682,20.013 16.142,30.051 13.524,34.854L12.929,35.981L18.659,41.712L24.39,47.444L23.198,49.928C22.534,51.318 21.508,53.837 20.912,55.558L19.785,58.672L11.503,58.771L3.222,58.838L2.693,61.752C1.102,70.697 1.102,79.673 2.693,88.418L3.222,91.299L19.62,91.299L20.547,93.849C21.043,95.274 22.137,97.89 22.965,99.679L24.489,102.925L18.792,108.622C15.645,111.769 13.095,114.486 13.095,114.651C13.128,115.246 17.169,120.679 20.217,124.092C23.529,127.869 28.929,132.672 33.036,135.487L35.753,137.343L41.616,131.513L47.445,125.685L50.096,127.01C51.521,127.739 54.103,128.832 55.76,129.394L58.807,130.488L58.807,146.886L60.463,147.25C65.167,148.277 67.353,148.443 75.039,148.443C82.791,148.443 84.083,148.344 89.549,147.25L91.271,146.919L91.271,130.488L94.352,129.394C96.007,128.799 98.592,127.739 100.049,127.043L102.699,125.751L114.393,137.445L117.672,135.126C124.331,130.356 130.359,124.328 135.096,117.702L137.415,114.423L125.721,102.729L127.012,100.079C127.708,98.621 128.768,96.037 129.364,94.349L130.458,91.3L146.856,91.3L147.254,89.579C148.314,84.643 148.646,80.204 148.446,73.081C148.281,66.357 148.115,64.866 147.254,60.592L146.889,58.838L130.458,58.838L129.364,55.789C128.802,54.134 127.708,51.549 126.979,50.126L125.655,47.475L131.486,41.645L137.316,35.781L135.461,33.032C130.989,26.54 123.568,19.119 117.075,14.648L114.325,12.792L108.495,18.59L102.666,24.42L99.851,23.095C98.327,22.333 95.81,21.308 94.253,20.743L91.437,19.783L91.338,11.502L91.272,3.254L88.357,2.724C82.029,1.563 73.416,1.233 67.421,1.895ZM81.498,48.072C91.569,50.655 99.087,57.976 101.937,67.947C102.897,71.426 102.997,78.381 102.102,81.661C100.578,87.293 98.69,90.506 94.583,94.614C90.476,98.721 87.263,100.61 81.63,102.134C78.351,103.028 71.394,102.929 67.916,101.968C57.879,99.087 50.69,91.7 47.975,81.364C47.146,78.185 47.246,71.759 48.14,68.28C51.585,55.461 63.179,46.815 76.197,47.411C78.019,47.51 80.406,47.806 81.498,48.072Z" style="fill:rgb(128,128,128);"/>
        </g>
        <g transform="matrix(3.34501,0,0,3.34501,498.248,498.248)">
            <circle cx="75" cy="75" r="75" style="fill:rgb(34,145,167);"/>
            <g>
                <path d="M75,30L75,120" style="fill:none;stroke:white;stroke-width:12px;"/>
                <path d="M30,75L120,75" style="fill:none;stroke:white;stroke-width:12px;"/>
            </g>
        </g>
    </g>
    <g id="add-folder-icon" viewBox="0 0 1000 1000" >
        <g transform="matrix(6.66665,0,0,6.66665,2.27374e-13,0.00145718)">
            <path d="M2.395,115.118L2.395,14.834L10.584,11.899L39.884,11.899L46.322,16.327L52.02,23.93L130.931,23.93L138.45,30.546L138.45,45.94L25.737,45.94L2.395,115.118Z" style="fill:white;"/>
            <path d="M141.527,40.277C141.527,37.76 141.48,34.336 141.48,31.697C141.48,24.534 137.292,21.436 129.042,21.436C105.016,21.436 81.762,21.483 57.084,21.483C54.483,21.483 52.739,20.709 51.689,18.41C48.394,11.077 42.98,9.066 34.952,9.066C27.143,9.066 16.99,9.164 9.178,9.164C3.141,9.164 0,12.895 0,18.148L0,128.658C0,136.27 5.494,140.934 13.106,140.934C50.184,140.934 87.213,140.862 124.291,140.862C131.501,140.862 134.341,138.127 135.607,130.889C139.118,111.016 148.723,59.716 149.742,53.869C151.113,45.98 146.829,41.852 141.527,40.277ZM6.016,20.66C6.016,18.045 8.102,15.771 10.72,15.771C20.412,15.771 30.082,15.867 39.776,15.867C41.065,15.867 42.663,16.812 43.57,17.829C45.002,19.402 45.982,21.41 47.152,23.25C49.277,26.639 52.191,28.043 56.248,28.043C80.695,28.043 105.263,27.994 129.71,27.994C133.221,27.994 135.105,30.661 135.105,33.368L135.105,40.12C133.338,40.12 60.403,40.024 25.259,40.024C18.717,40.024 15.853,42.445 14.684,48.956C12.056,63.431 9.405,77.857 6.183,92.33C6.113,91.484 6.016,43.678 6.016,20.66Z" style="fill-rule:nonzero;"/>
            <g transform="matrix(0.15,0,0,0.15,-3.41062e-14,-0.000218578)">
                <path d="M44.591,827.98L139.044,357.862C145.704,325.129 148.496,309.016 181.899,309.016L906.959,309.016C933.922,309.016 963.254,318.974 952.497,375.02L869.923,841.366C862.314,881.205 850.294,899.657 804.226,899.657L110.299,899.657C78.119,899.657 35.34,875.311 44.591,827.98Z" style="fill:white;stroke:black;stroke-width:1px;"/>
            </g>
        </g>
        <g transform="matrix(3.34501,0,0,3.34501,498.248,498.248)">
            <circle cx="75" cy="75" r="75" style="fill:rgb(34,145,167);"/>
            <g>
                <path d="M75,30L75,120" style="fill:none;stroke:white;stroke-width:12px;stroke-linecap:butt;stroke-miterlimit:2;"/>
                <path d="M30,75L120,75" style="fill:none;stroke:white;stroke-width:12px;stroke-linecap:butt;stroke-miterlimit:2;"/>
            </g>
        </g>
    </g>
</svg>